<?xml version="1.0" encoding="UTF-8"?>
<svg width="143px" height="32px" viewBox="0 0 143 32" version="1.1" xmlns="http://www.w3.org/2000/svg" xmlns:xlink="http://www.w3.org/1999/xlink">
    <!-- Generator: Sketch 52.2 (67145) - http://www.bohemiancoding.com/sketch -->
    <title>exlskills-logo copy</title>
    <desc>Created with Sketch.</desc>
    <g id="🔥--Symbols" stroke="none" stroke-width="1" fill="none" fill-rule="evenodd">
        <g id="HEADER-nav-white" transform="translate(0.000000, -8.000000)" fill="#FFFFFF" fill-rule="nonzero">
            <g id="exlskills-logo-copy" transform="translate(0.000000, 8.000000)">
                <path d="M23.6666667,6.73289773 C23.6359479,7.0107416 23.6513073,7.33489278 23.6359479,7.61273665 C23.6052292,8.39996096 23.5591511,9.15631372 23.4977136,9.89723071 C23.4209168,10.9159916 23.3134013,11.8884451 23.2058857,12.8763344 C23.0983701,13.6944303 22.9908546,14.5125261 22.8526203,15.3151862 C22.7758235,15.7936951 22.6836673,16.2567682 22.6068705,16.7198413 C22.3265748,18.2399926 21.9677038,19.7444445 21.5317149,21.2270864 C21.2368505,22.2381832 20.8882035,23.2326478 20.487278,24.2061901 C19.7039504,26.1047899 18.7823885,27.849032 17.5536392,29.3463017 C16.9614415,30.1016405 16.2444749,30.749076 15.4340468,31.2603373 C14.472754,31.8637032 13.3314757,32.1094794 12.20858,31.954947 C10.0429095,31.5999242 8.84487901,29.7785033 8.4455355,27.6483669 C7.98475454,25.2403867 8.4455355,22.5236911 8.95239456,20.4398621 C9.19429837,19.4141707 9.49690395,18.403904 9.85859712,17.414451 C10.3961749,15.9480528 10.9798308,14.5433977 11.6249242,13.1850499 C11.8245959,12.768284 12.039627,12.3360825 12.2392988,11.9038809 C12.6386423,11.1320924 13.0379858,10.3603038 13.468048,9.60395107 C13.9595477,8.75498368 14.435688,7.9060163 14.9425471,7.07248468 C15.3265312,6.43961808 15.7258747,5.82218726 16.1098589,5.20475643 L16.6167179,4.46383944 C17.5997173,3.15179894 18.4905605,1.80888689 19.7653878,0.790126031 C20.1800907,0.465974847 20.7023091,0.0955163521 21.2706057,0.0183374989 C21.9924958,-0.0897128955 22.4839955,0.29618137 22.7911828,0.743818719 C23.7281041,2.12686377 23.6359479,4.48853668 23.6666667,6.73289773 Z M17.1542957,4.81886217 C16.9853427,5.09670604 16.831749,5.40542145 16.662796,5.69870109 C16.4477649,6.1154669 16.2327338,6.53223271 16.033062,6.96443429 C15.6797966,7.67447974 15.35725,8.41539673 15.0500626,9.15631372 C14.4817661,10.5455331 13.9441883,11.965624 13.4987667,13.447458 L13.4834074,13.447458 C13.299095,14.0648888 13.0994232,14.6668838 12.9458296,15.3151862 L12.9304702,15.3151862 C12.7615172,15.9789243 12.5925642,16.6272267 12.4236112,17.2909648 C12.20858,18.2171111 12.0089083,19.1432573 11.8553146,20.1157109 C11.5481273,22.0914895 11.1795026,24.6538274 11.5788461,26.8302711 C11.701721,27.4940092 11.9013927,28.1577474 12.331455,28.5127701 C12.4919247,28.6580496 12.6991663,28.7402625 12.9151108,28.7443067 C13.3298137,28.7443067 13.6984385,28.5127701 13.9749071,28.3121051 C14.8503909,27.71011 15.5108436,26.8457069 16.1098589,25.9967395 C16.9418984,24.802904 17.6764261,23.5433492 18.3062481,22.2304114 C18.3216075,22.2304114 18.3216075,22.2149757 18.3216075,22.1995399 C18.7516697,21.3660083 19.1510132,20.4861694 19.519638,19.5908947 C19.7961066,18.9734638 20.0418564,18.3097257 20.3029656,17.6614233 C20.5179967,17.0439925 20.7483872,16.4419975 20.948059,15.8245666 C21.4088399,14.4353473 21.8389022,13.0306921 22.1768082,11.5334224 C22.37648,10.7616339 22.545433,9.95897379 22.6990266,9.14087795 C22.7758235,8.64693329 22.8679797,8.1684244 22.9294171,7.67447974 C22.9754952,7.36576432 23.0215733,7.04161314 23.052292,6.70202619 C23.2366044,5.03496296 23.3134013,2.87395507 22.788111,1.48473571 C22.5884392,0.929047967 22.2505332,0.327052912 21.5440024,0.327052912 C20.9449871,0.327052912 20.4227687,0.728382948 20.0541439,1.05253413 C19.0404258,1.91693729 18.3031763,2.96656969 17.5812861,4.12425249 C17.4307643,4.34961474 17.2771706,4.5811513 17.1542957,4.81268786 L17.1542957,4.81886217 Z" id="Shape"></path>
                <path d="M16.5116279,4.23074054 L16.008795,4.95052406 C14.5002962,3.6909029 12.885136,2.40129076 10.9195164,1.47157038 C10.5830947,1.31962995 10.2369834,1.18939391 9.88337584,1.08168764 C9.48166106,0.946660672 9.05809721,0.885659639 8.63391223,0.901741755 C7.50634751,0.991714695 7.36921126,2.10138096 7.59777168,3.21104722 C7.94823098,4.98051504 8.81676056,6.31511365 9.54815389,7.67970324 L9.54815389,7.69469873 C9.31959348,7.7396852 9.12150778,7.81466265 8.90818473,7.85964912 C8.34440237,6.63001894 7.73490793,5.37039778 7.36921126,3.91583525 C7.18636293,3.19605173 7.03398932,2.23634037 7.29302446,1.53155234 C7.55205959,0.826764305 8.11584195,0.496863525 9.0757957,0.571840975 C9.82738417,0.644362749 10.5599557,0.84744528 11.239501,1.17166058 C13.1898832,2.01140802 14.8507555,3.10607879 16.5116279,4.20074956 C16.5075328,4.20469824 16.5052251,4.2101029 16.5052251,4.21574505 C16.5052251,4.2213872 16.5075328,4.22679186 16.5116279,4.23074054 Z" id="Shape-2"></path>
                <path d="M17.0538008,5.05263158 C17.9902812,5.7608637 18.9103321,6.46909582 19.8139535,7.19460189 C19.1403448,7.2291498 18.4667361,7.24642375 17.8095569,7.29824561 C17.3823904,6.86639676 16.9552239,6.43454791 16.5116279,6.03724696 C16.6923522,5.70904184 16.856647,5.36356275 17.0538008,5.05263158 Z" id="Shape-3"></path>
                <path d="M22.5658915,6.74901585 C22.5363688,7.06198201 22.4920847,7.34649669 22.4478006,7.64523711 C21.8721079,7.68791432 21.3406992,7.75904299 20.7945291,7.83017166 C20.1450296,7.90130033 19.5250527,8.01510621 18.9050759,8.11468635 C17.5175087,8.37074956 16.1742255,8.66948998 14.8604651,8.98245614 C15.1556922,8.29962089 15.4656806,7.61678564 15.8051917,6.96240186 C16.3956458,6.91972466 16.9713386,6.86282172 17.5765541,6.84859599 C18.1522469,6.80591879 18.7722237,6.79169305 19.3774392,6.76324158 C20.4254953,6.74901585 21.5178354,6.72056438 22.5658915,6.74901585 Z" id="Shape-4"></path>
                <path d="M23.0472444,6.73684211 C23.9892683,6.75248493 24.8864339,6.79941339 25.7686468,6.87762751 C27.5181198,7.03405573 29.192829,7.23741242 30.5236247,7.86312531 C31.1366879,8.16033893 31.8394677,8.61398077 31.9142315,9.39612188 C31.9889953,10.178263 31.5404125,10.7570474 31.1815462,11.1950464 C30.0152309,12.5872576 28.4152855,13.4163272 26.8751511,14.3861822 C26.067702,14.8241812 25.260253,15.277823 24.4378511,15.6845364 C23.6453548,16.0912498 22.8379057,16.4666775 22.0155039,16.8421053 C22.1052204,16.3728206 22.1799842,15.8878931 22.254748,15.4186084 C22.822953,15.2465374 23.3762051,15.0588235 23.9145045,14.8554668 C24.7832501,14.5576542 25.6366966,14.2130521 26.4714266,13.8230406 C27.6052454,13.3369563 28.6876667,12.7288294 29.7012229,12.0084732 C30.2028319,11.6767547 30.6560815,11.2710787 31.0469713,10.8039759 C31.3759321,10.3972625 31.8544204,9.66204986 31.4207904,8.97376568 C31.1067824,8.48883819 30.4937192,8.17598175 29.880656,7.98826788 C28.0115609,7.37819782 25.2901585,7.42512628 23.0322916,7.59719733 C23.0472444,7.34065504 23.0173388,7.01215578 23.0472444,6.73684211 Z" id="Shape-5"></path>
                <path d="M15.6304941,6.73684211 C16.1047416,7.27402396 16.0641811,8.10066133 15.5397148,8.58695778 C15.2919476,8.80586352 14.9749791,8.92630299 14.6470519,8.92614565 C14.2234153,9.04948669 13.0432847,9.37325694 11.9236737,9.7586977 C11.3336084,9.9591269 10.8191925,10.1441385 10.7889328,10.1595561 C10.4863352,10.2674795 10.1837376,10.3754029 9.91139977,10.498744 C8.51600563,11.0233868 7.16918092,11.6734898 5.88685194,12.4413654 C5.26938831,12.7990072 4.6911739,13.2228259 4.16204573,13.7056111 C3.89492163,13.9389059 3.66071508,14.2086965 3.4660713,14.5073279 C3.20886335,14.9236039 3.11808408,15.4323858 3.42068166,15.8332441 C3.90483779,16.465367 5.08496836,16.7737196 6.03815074,16.9433136 C7.18960183,17.120554 8.35373453,17.1979197 9.51802292,17.174578 C9.18516558,18.1458887 8.882568,19.1480347 8.62536005,20.1964336 C4.91853969,20.3197746 1.84717424,19.6568165 0.530874762,17.2825014 C0.0137876266,16.3453592 -0.132347073,15.2422925 0.122368028,14.1989753 C0.606524157,12.333442 2.0892523,11.1000316 3.51146093,10.1903914 C5.03957872,9.21908063 6.79464469,8.55612251 8.67074969,7.98567018 C8.882568,7.93941729 9.07925642,7.86232914 9.30620461,7.81607625 L9.30620461,7.80065862 C10.1080882,7.60022942 10.9553614,7.41521785 11.8631542,7.24562391 C13.1097014,7.01133869 14.3670915,6.84152732 15.6304941,6.73684211 Z" id="Shape-6"></path>
                <path d="M20.6002215,7.85964912 C21.0719823,8.24339329 21.5584856,8.62713746 22.0155039,9.02509438 C21.8680786,9.77836998 21.7059109,10.5174328 21.514258,11.2280702 C20.6297065,10.1621141 19.6861849,9.13879636 18.7131783,8.14390406 C19.3323643,8.04441483 19.9515504,7.93071286 20.6002215,7.85964912 Z" id="Shape-7"></path>
                <path d="M22.3518342,8.98245614 C23.256226,9.74027355 24.1923508,10.6063506 25.1443421,11.5806873 C25.8107361,12.2611764 26.413664,12.9261998 26.9689922,13.5757576 C26.0832521,13.9613521 25.1776515,14.3020514 24.2558169,14.5964912 C24.0336856,14.2717123 23.8115542,13.9623991 23.5735564,13.6376202 C22.9864951,12.8334058 22.3835672,12.0755884 21.7965059,11.3796337 C21.5305554,11.0340566 21.4177701,10.5990093 21.4833684,10.171767 C21.5489667,9.74452465 21.7874771,9.36072394 22.1455694,9.10618143 C22.2091424,9.05724489 22.2783672,9.01572124 22.3518342,8.98245614 Z" id="Shape-8"></path>
                <path d="M9.09276687,8.29697648 C9.68387961,9.32299063 10.3326619,10.3645504 11.0391137,11.4216559 C11.2121223,11.6859323 11.3851309,11.934663 11.5581395,12.1833937 C11.3707135,12.6186724 11.1688702,13.0539512 10.9814442,13.4736842 C10.7651834,13.0694968 10.5345053,12.6653094 10.3182445,12.2455764 C9.64062746,10.9552859 9.03509733,9.69608668 8.47281936,8.46797884 C8.35748029,8.06379145 8.17005429,7.36423635 8.29981075,7.30205368 C8.42956721,7.239871 8.89092349,7.95497177 9.09276687,8.29697648 Z" id="Shape-9"></path>
                <path d="M13.1855787,13.4736842 C14.0680968,14.7285862 15.0075515,15.9009288 15.9612403,17.0402477 C15.2495322,17.1723426 14.5093558,17.2879257 13.7834135,17.4035088 C13.3990912,16.7595459 13.0290029,16.1155831 12.6589147,15.4551084 C12.8012563,14.7781218 13.0005346,14.1341589 13.1855787,13.4736842 Z" id="Shape-10"></path>
                <path d="M26.8236818,13.4736842 C26.8683316,13.5048737 28.1780597,15.2982718 28.7585073,16.2651473 C29.2471809,17.063089 29.6703901,17.9030179 30.0235856,18.7759046 C30.4299485,19.7306773 30.6910895,20.7462465 30.7975158,21.7856944 C31.0058816,24.2652622 29.8449863,25.9806864 28.2078262,26.6512614 C27.2850632,27.0255357 26.1092846,27.0255357 25.0674555,26.7604247 C23.1623965,26.2613922 21.7336022,25.1229743 20.3643411,24.0625302 C20.7364229,23.0956547 21.0787382,22.0975897 21.3764037,21.0527404 C22.6265987,21.9572368 23.8321438,22.9085175 25.4544206,23.4699291 C26.1985843,23.7194454 27.2255302,23.8442035 27.5529622,23.1112495 C27.8506276,22.4562693 27.7166782,21.614152 27.433896,20.7876294 C26.9576312,19.3841005 26.0646348,17.2320228 24.2935253,14.5185335 C24.9803897,13.8474055 25.8845151,13.4740393 26.8236818,13.4736842 Z" id="Shape-11"></path>
                <path d="M22.5053642,15.1578947 C22.6388489,15.6629983 22.548992,16.2050629 22.2610746,16.6315789 C20.8716779,17.2631579 19.7418389,17.7327935 18.9326298,18.0566802 C18.4135145,18.2672065 18.0776164,18.3967611 17.8943993,18.4615385 C17.0851902,18.7530364 16.2454449,19.0283401 15.4056997,19.3036437 C14.1393679,19.6785956 12.8550075,19.9813236 11.5581395,20.2105263 C11.7260886,19.1902834 11.9093057,18.2186235 12.1230591,17.2469636 C12.7032467,17.1983806 13.2681663,17.1336032 13.8330858,17.0688259 C13.8330858,17.0688259 14.9629249,16.9230769 16.1691044,16.7125506 C18.7921633,16.242915 22.1389299,15.2550607 22.5053642,15.1578947 Z" id="Shape-12"></path>
                <path d="M17.9586147,18.5263158 C18.3780633,18.9450676 18.8285821,19.3477135 19.2635659,19.7342537 C18.8907227,20.6683923 18.4868092,21.5864251 18.0518255,22.4561404 C17.1146457,21.473445 16.2328601,20.4355828 15.4108527,19.3477135 C16.2808202,19.0835778 17.1352526,18.8097785 17.9586147,18.5263158 Z" id="Shape-13"></path>
                <path d="M36.3261365,7.01526516 C36.3216661,6.9457376 36.344338,6.87726081 36.3890716,6.82518035 C36.4338052,6.77309989 36.4968598,6.7417707 36.564105,6.73821361 L48.1650687,6.73821361 C48.2328505,6.7308517 48.3004961,6.75335623 48.3514351,6.80021455 C48.4023742,6.84707287 48.4319012,6.91395645 48.4327832,6.98448165 L48.4327832,9.43177033 C48.4372537,9.50129789 48.4145817,9.56977468 48.3698481,9.62185514 C48.3251145,9.6739356 48.2620599,9.70526479 48.1948148,9.70882188 L39.6874414,9.70882188 C39.6479552,9.70452908 39.6084495,9.71675285 39.5777207,9.74277146 C39.5469919,9.76879007 39.5275911,9.80644342 39.523838,9.84734765 L39.523838,14.5418322 C39.508965,14.618791 39.5833301,14.6957498 39.6576953,14.7111415 L46.826496,14.7111415 C46.8942778,14.7037796 46.9619234,14.7262841 47.0128624,14.7731424 C47.0638014,14.8200008 47.0933284,14.8868843 47.0942105,14.9574096 L47.0942105,17.4046982 C47.1013243,17.4748441 47.0795782,17.5448489 47.0342991,17.5975645 C46.9890199,17.6502801 46.9243904,17.6808369 46.856242,17.6817498 L39.6874414,17.6817498 C39.6479552,17.677457 39.6084495,17.6896807 39.5777207,17.7156994 C39.5469919,17.741718 39.5275911,17.7793713 39.523838,17.8202756 L39.523838,22.6840694 C39.508965,22.7610282 39.5833301,22.8379869 39.6576953,22.8533787 L48.1650687,22.8533787 C48.2328505,22.8460168 48.3004961,22.8685213 48.3514351,22.9153796 C48.4023742,22.9622379 48.4319012,23.0291215 48.4327832,23.0996467 L48.4327832,25.5469354 C48.4398971,25.6170813 48.418151,25.6870861 48.3728718,25.7398017 C48.3275927,25.7925173 48.2629632,25.8230741 48.1948148,25.823987 L36.593851,25.823987 C36.5266666,25.8286133 36.4604976,25.8051506 36.4101723,25.7588568 C36.3598471,25.7125631 36.3295737,25.6473094 36.3261365,25.5777189 L36.3261365,7.01526516 Z" id="Shape-14"></path>
                <path d="M62.2821714,25.803064 C62.0948562,25.8125765 61.9213618,25.702491 61.8465743,25.5266695 L58.0914265,19.0467525 L58.0313441,19.0467525 L54.2461551,25.5266695 C54.174603,25.7053186 53.9989161,25.8167953 53.810558,25.803064 L50.8484974,25.803064 C50.6532297,25.803064 50.5781267,25.6341563 50.6832709,25.434538 L56.2559102,15.9357781 L51.1038474,7.10650735 C50.9987033,6.90688905 51.0738062,6.73798126 51.2690739,6.73798126 L54.2281304,6.73798126 C54.4154456,6.72846884 54.5889401,6.83855433 54.6637276,7.01437583 L58.0433606,12.7879512 L58.103443,12.7879512 L61.483076,7.01437583 C61.5546281,6.8357267 61.730315,6.72425003 61.9186731,6.73798126 L64.8777296,6.73798126 C65.0729973,6.73798126 65.1481002,6.90688905 65.0429561,7.10650735 L59.8758727,15.9511334 L65.4485121,25.4560353 C65.5536562,25.6556536 65.4785533,25.8245614 65.2832856,25.8245614 L62.2821714,25.803064 Z" id="Shape-15"></path>
                <path d="M67.6982295,7.01425598 C67.6937591,6.94478155 67.7164311,6.87635707 67.7611646,6.82431641 C67.8058982,6.77227574 67.8689528,6.74097049 67.936198,6.73741611 L70.6282165,6.73741611 C70.6954009,6.73279333 70.7615699,6.75623809 70.8118952,6.80249646 C70.8622205,6.84875483 70.8924938,6.91395871 70.895931,6.983496 L70.895931,22.6864688 C70.881058,22.7633688 70.9554232,22.8402688 71.0297883,22.8556488 L79.5371617,22.8556488 C79.6049436,22.8482925 79.6725891,22.8707798 79.7235282,22.9176023 C79.7744672,22.9644248 79.8039942,23.0312573 79.8048763,23.1017286 L79.8048763,25.5471475 C79.8119901,25.6172398 79.790244,25.6871911 79.7449648,25.7398665 C79.6996857,25.7925418 79.6350562,25.8230752 79.5669078,25.8239874 L67.9659441,25.8239874 C67.8987597,25.8286102 67.8325906,25.8051654 67.7822654,25.758907 C67.7319401,25.7126487 67.7016667,25.6474448 67.6982295,25.5779075 L67.6982295,7.01425598 Z" id="Shape-16"></path>
                <g id="Group" transform="translate(84.658915, 6.736842)">
                    <path d="M0.169279833,17.6006631 C0.118504484,17.5497369 0.0898913504,17.480033 0.0898913504,17.4072662 C0.0898913504,17.3344994 0.118504484,17.2647955 0.169279833,17.2138693 L0.773850665,16.5176406 C0.884285442,16.4271307 1.04127266,16.4271307 1.15170743,16.5176406 C2.35116723,17.5328539 3.85757081,18.0906104 5.4139318,18.0957591 C7.69618669,18.0957591 8.829757,17.0591518 8.829757,15.5119768 C8.829757,14.1659345 8.25541471,13.4232905 5.83713138,13.144799 L4.52218982,13.0055533 C2.07367795,12.7580052 0.698279311,11.535737 0.698279311,9.43157895 C0.698279311,6.98704241 2.43642045,5.51722614 5.32324617,5.51722614 C6.87145518,5.50847034 8.38885909,5.95994657 9.69127043,6.81685316 C9.81156388,6.90704036 9.83852631,7.07954125 9.75172752,7.20364691 L9.25295658,7.88440392 C9.21631779,7.95008735 9.1536882,7.99631154 9.08123363,8.01114519 C9.00877907,8.02597884 8.93359939,8.00796839 8.87509981,7.96176267 C7.76892615,7.31295595 6.52219215,6.95667745 5.24767482,6.92515541 C3.2374768,6.92515541 2.19459212,7.82251692 2.19459212,9.3232767 C2.19459212,10.6538472 2.99564847,11.350076 5.21744628,11.5821522 L6.53238784,11.721398 C9.0866996,11.968946 10.3260698,13.2376295 10.3260698,15.3263158 C10.3260698,17.8946263 8.5728144,19.5191601 5.29301763,19.5191601 C3.42021538,19.5028775 1.61033667,18.825199 0.169279833,17.6006631 Z M23.3092284,19.2097251 C23.1127429,19.2097251 23.0371715,19.1478381 22.9011431,18.9312336 L18.7144901,11.968946 L15.9032357,15.3417875 L15.9032357,18.9157618 C15.9087181,18.9912033 15.8818206,19.0653466 15.829564,19.1188392 C15.7773074,19.1723318 15.7048773,19.1998654 15.6311789,19.1942533 L14.6940941,19.1942533 C14.6203957,19.1998654 14.5479655,19.1723318 14.4957089,19.1188392 C14.4434523,19.0653466 14.4165548,18.9912033 14.4220372,18.9157618 L14.4220372,0.334189805 C14.4165548,0.258748302 14.4434523,0.184605077 14.4957089,0.131112483 C14.5479655,0.0776198895 14.6203957,0.0500862848 14.6940941,0.0556983009 L15.6311789,0.0556983009 C15.7048773,0.0500862848 15.7773074,0.0776198895 15.829564,0.131112483 C15.8818206,0.184605077 15.9087181,0.258748302 15.9032357,0.334189805 L15.9032357,13.2376295 L21.8431442,6.05873739 C22.0094011,5.85760464 22.0849725,5.78024589 22.3116865,5.78024589 L23.4452569,5.78024589 C23.5136146,5.77011572 23.5806194,5.80597161 23.6115086,5.86921114 C23.6423978,5.93245067 23.6302168,6.00883592 23.5812853,6.05873739 L19.6969177,10.7621495 L24.5939414,18.9312336 C24.6337285,18.9892118 24.6361181,19.0658292 24.6000251,19.1262874 C24.5639321,19.1867455 24.4962365,19.21952 24.4276845,19.2097251 L23.3092284,19.2097251 Z M28.3120521,2.19079983 C28.2383536,2.19641185 28.1659235,2.16887825 28.1136669,2.11538565 C28.0614103,2.06189306 28.0345128,1.98774983 28.0399952,1.91230833 L28.0399952,0.334189805 C28.0345128,0.258748302 28.0614103,0.184605077 28.1136669,0.131112483 C28.1659235,0.0776198895 28.2383536,0.0500862848 28.3120521,0.0556983009 L29.5211937,0.0556983009 C29.5948921,0.0500862848 29.6673222,0.0776198895 29.7195789,0.131112483 C29.7718355,0.184605077 29.7987329,0.258748302 29.7932506,0.334189805 L29.7932506,1.91230833 C29.7987329,1.98774983 29.7718355,2.06189306 29.7195789,2.11538565 C29.6673222,2.16887825 29.5948921,2.19641185 29.5211937,2.19079983 L28.3120521,2.19079983 Z M28.4480805,19.2097251 C28.3743821,19.2153371 28.301952,19.1878035 28.2496953,19.1343109 C28.1974387,19.0808183 28.1705413,19.0066751 28.1760236,18.9312336 L28.1760236,6.05873739 C28.1705413,5.98329589 28.1974387,5.90915267 28.2496953,5.85566007 C28.301952,5.80216748 28.3743821,5.77463387 28.4480805,5.78024589 L29.3851653,5.78024589 C29.4588637,5.77463387 29.5312938,5.80216748 29.5835504,5.85566007 C29.6358071,5.90915267 29.6627045,5.98329589 29.6572222,6.05873739 L29.6572222,18.9312336 C29.6627045,19.0066751 29.6358071,19.0808183 29.5835504,19.1343109 C29.5312938,19.1878035 29.4588637,19.2153371 29.3851653,19.2097251 L28.4480805,19.2097251 Z M37.4108431,19.2870839 C35.4308736,19.2870839 34.6902743,18.3587788 34.6902743,16.1308468 L34.6902743,0.334189805 C34.684792,0.258748302 34.7116894,0.184605077 34.763946,0.131112483 C34.8162027,0.0776198895 34.8886328,0.0500862848 34.9623312,0.0556983009 L35.899416,0.0556983009 C35.9731144,0.0500862848 36.0455445,0.0776198895 36.0978012,0.131112483 C36.1500578,0.184605077 36.1769552,0.258748302 36.1714729,0.334189805 L36.1714729,16.0689598 C36.1714729,17.3995303 36.5795582,17.8172676 37.5771001,17.8172676 L38.0456424,17.8172676 C38.1193409,17.8116556 38.191771,17.8391892 38.2440276,17.8926818 C38.2962842,17.9461744 38.3231817,18.0203176 38.3176993,18.0957591 L38.3176993,18.9931206 C38.3231817,19.0685621 38.2962842,19.1427053 38.2440276,19.1961979 C38.191771,19.2496905 38.1193409,19.2772241 38.0456424,19.2716121 L37.4108431,19.2716121 L37.4108431,19.2870839 Z M44.5901217,19.2870839 C42.6101522,19.2870839 41.869553,18.3587788 41.869553,16.1308468 L41.869553,0.334189805 C41.8640706,0.258748302 41.890968,0.184605077 41.9432247,0.131112483 C41.9954813,0.0776198895 42.0679114,0.0500862848 42.1416098,0.0556983009 L43.0756718,0.0556983009 C43.1493702,0.0500862848 43.2218003,0.0776198895 43.2740569,0.131112483 C43.3263136,0.184605077 43.353211,0.258748302 43.3477286,0.334189805 L43.3477286,16.0689598 C43.3477286,17.3995303 43.755814,17.8172676 44.7533558,17.8172676 L45.2218982,17.8172676 C45.2967412,17.8114082 45.3702817,17.8397462 45.4227718,17.8946718 C45.475262,17.9495975 45.5013224,18.0254818 45.4939551,18.1019478 L45.4939551,18.9993093 C45.4994374,19.0747508 45.47254,19.148894 45.4202834,19.2023866 C45.3680267,19.2558792 45.2955966,19.2834128 45.2218982,19.2778008 L44.5870988,19.2778008 L44.5901217,19.2870839 Z M48.0815183,17.6006631 C48.0307429,17.5497369 48.0021298,17.480033 48.0021298,17.4072662 C48.0021298,17.3344994 48.0307429,17.2647955 48.0815183,17.2138693 L48.6860891,16.5176406 C48.7965239,16.4271307 48.9535111,16.4271307 49.0639459,16.5176406 C50.2634057,17.5328539 51.7698092,18.0906104 53.3261702,18.0957591 C55.6084251,18.0957591 56.7419954,17.0591518 56.7419954,15.5119768 C56.7419954,14.1659345 56.1676531,13.4232905 53.7493698,13.144799 L52.4344282,13.0055533 C49.9859164,12.7580052 48.6105177,11.535737 48.6105177,9.43157895 C48.6105177,6.98704241 50.3486589,5.51722614 53.2354846,5.51722614 C54.7836936,5.50847034 56.3010975,5.95994657 57.6035089,6.81685316 C57.7238023,6.90704036 57.7507647,7.07954125 57.6639659,7.20364691 L57.165195,7.88440392 C57.1285562,7.95008735 57.0659266,7.99631154 56.9934721,8.01114519 C56.9210175,8.02597884 56.8458378,8.00796839 56.7873382,7.96176267 C55.6811646,7.31295595 54.4344306,6.95667745 53.1599132,6.92515541 C51.1497152,6.92515541 50.1068305,7.82251692 50.1068305,9.3232767 C50.1068305,10.6538472 50.9078869,11.350076 53.1296847,11.5821522 L54.4446263,11.721398 C56.998938,11.968946 58.2383082,13.2376295 58.2383082,15.3263158 C58.2383082,17.8946263 56.4850528,19.5191601 53.2052561,19.5191601 C51.3329247,19.5002272 49.5238859,18.8228632 48.0815183,17.6006631 Z" id="Combined-Shape"></path>
                </g>
            </g>
        </g>
    </g>
</svg>