<?xml version="1.0" encoding="UTF-8"?>
<svg width="36px" height="44px" viewBox="0 0 36 44" version="1.1" xmlns="http://www.w3.org/2000/svg" xmlns:xlink="http://www.w3.org/1999/xlink">
    <!-- Generator: Sketch 52.2 (67145) - http://www.bohemiancoding.com/sketch -->
    <title>Group 7</title>
    <desc>Created with Sketch.</desc>
    <g id="ðŸ --Public-Web" stroke="none" stroke-width="1" fill="none" fill-rule="evenodd">
        <g id="Instructor-New" transform="translate(-120.000000, -650.000000)" stroke="#000000">
            <g id="Group-2" transform="translate(116.000000, 650.000000)">
                <g id="Group-7">
                    <polygon id="Stroke-1" stroke-opacity="0.0117647061" stroke-width="1.33333336e-11" points="0 0 43.9999982 0 43.9999982 43.9999982 0 43.9999982"></polygon>
                    <g id="Group-6" transform="translate(5.500000, 1.833333)" stroke-linecap="round" stroke-linejoin="round" stroke-width="2">
                        <path d="M32.9999977,16.4999989 C32.9999977,29.3333315 16.4999987,40.3333308 16.4999987,40.3333308 C16.4999987,40.3333308 -3.3e-07,29.3333315 -3.3e-07,16.4999989 C0.00157193657,11.9447626 1.61315471,8.05690321 4.83474963,4.83642075 C8.05634437,1.61593829 11.9447589,0.00569706466 16.4999968,0.00569706466 C21.055235,0.00569684466 24.9436513,1.61593774 28.165245,4.83642038 C31.3868405,8.05690229 32.9984284,11.9447619 32.9999977,16.4999989 Z" id="Stroke-3"></path>
                        <path d="M21.9999983,16.4999989 C21.9999983,20.1666653 20.1666651,21.9999986 16.4999987,21.9999986 C12.8333322,21.9999986 10.999999,20.1666653 10.999999,16.4999989 C10.999999,12.8333325 12.8333322,10.9999992 16.4999987,10.9999992 C20.1666651,10.9999992 21.9999983,12.8333325 21.9999983,16.4999989 Z" id="Stroke-5"></path>
                    </g>
                </g>
            </g>
        </g>
    </g>
</svg>