<?xml version="1.0" encoding="UTF-8"?>
<svg width="44px" height="36px" viewBox="0 0 44 36" version="1.1" xmlns="http://www.w3.org/2000/svg" xmlns:xlink="http://www.w3.org/1999/xlink">
    <!-- Generator: Sketch 52.2 (67145) - http://www.bohemiancoding.com/sketch -->
    <title>Group 9</title>
    <desc>Created with Sketch.</desc>
    <g id="ðŸ --Public-Web" stroke="none" stroke-width="1" fill="none" fill-rule="evenodd">
        <g id="Instructor-New" transform="translate(-739.000000, -654.000000)" stroke="#000000">
            <g id="Group-2" transform="translate(116.000000, 650.000000)">
                <g id="Group-9" transform="translate(623.000000, 0.000000)">
                    <polygon id="Stroke-1" stroke-opacity="0.0117647061" stroke-width="1.33333336e-11" points="0 0 43.9999982 0 43.9999982 43.9999982 0 43.9999982"></polygon>
                    <g id="Group-8" transform="translate(1.833333, 5.500000)" stroke-linecap="round" stroke-linejoin="round" stroke-width="2">
                        <path d="M29.3333315,32.9999977 L29.3333315,29.3333312 C29.3333315,24.4444439 26.8888878,21.9999983 21.9999986,21.9999983 L7.33333278,21.9999983 C5.308289,22.0000002 3.57980576,22.7159606 2.14788341,24.1478832 C0.715961009,25.5798033 -1.1e-07,27.3082864 -1.1e-07,29.3333312 L-1.1e-07,32.9999977" id="Stroke-3"></path>
                        <path d="M21.9999986,7.33333256 C21.9999986,12.2222218 19.5555549,14.6666655 14.6666657,14.6666655 C9.77777647,14.6666655 7.33333278,12.2222218 7.33333278,7.33333256 C7.33333278,2.44444336 9.77777647,-3.30000001e-07 14.6666657,-3.30000001e-07 C19.5555549,-3.30000001e-07 21.9999986,2.44444336 21.9999986,7.33333256 Z" id="Stroke-5"></path>
                        <path d="M40.3333308,32.9999977 L40.3333308,29.3333312 C40.3305093,25.5493296 38.4971761,23.1843314 34.8333311,22.2383337" id="Stroke-6"></path>
                        <path d="M27.4999982,0.238333172 C31.1762494,1.17960293 33.0143767,3.54765767 33.0143767,7.34249941 C33.0143767,11.1373413 31.1762494,13.5053974 27.4999982,14.4466657" id="Stroke-7"></path>
                    </g>
                </g>
            </g>
        </g>
    </g>
</svg>