<?xml version="1.0" encoding="UTF-8"?>
<svg width="1174px" height="600px" viewBox="0 0 1174 600" version="1.1" xmlns="http://www.w3.org/2000/svg" xmlns:xlink="http://www.w3.org/1999/xlink">
    <!-- Generator: Sketch 52.2 (67145) - http://www.bohemiancoding.com/sketch -->
    <title>Group 12</title>
    <desc>Created with Sketch.</desc>
    <defs>
        <path d="M1013.62095,258.513716 C1009.48914,258.513716 1006.13965,255.164225 1006.13965,251.032419 C1006.13965,246.900613 1009.48914,243.551122 1013.62095,243.551122 C1017.75275,243.551122 1021.10224,246.900613 1021.10224,251.032419 C1021.10224,255.164225 1017.75275,258.513716 1013.62095,258.513716 Z M1028.58354,363.25187 C1024.45174,363.25187 1021.10224,359.90238 1021.10224,355.770574 C1021.10224,351.638767 1024.45174,348.289277 1028.58354,348.289277 C1032.71535,348.289277 1036.06484,351.638767 1036.06484,355.770574 C1036.06484,359.90238 1032.71535,363.25187 1028.58354,363.25187 Z M1133.3217,527.840399 C1129.18989,527.840399 1125.8404,524.490908 1125.8404,520.359102 C1125.8404,516.227296 1129.18989,512.877805 1133.3217,512.877805 C1137.4535,512.877805 1140.80299,516.227296 1140.80299,520.359102 C1140.80299,524.490908 1137.4535,527.840399 1133.3217,527.840399 Z M1163.24688,491.930175 C1159.11508,491.930175 1155.76559,488.580684 1155.76559,484.448878 C1155.76559,480.317072 1159.11508,476.967581 1163.24688,476.967581 C1167.37869,476.967581 1170.72818,480.317072 1170.72818,484.448878 C1170.72818,488.580684 1167.37869,491.930175 1163.24688,491.930175 Z M1024.09476,213.625935 C1019.96296,213.625935 1016.61347,210.276445 1016.61347,206.144638 C1016.61347,202.012832 1019.96296,198.663342 1024.09476,198.663342 C1028.22657,198.663342 1031.57606,202.012832 1031.57606,206.144638 C1031.57606,210.276445 1028.22657,213.625935 1024.09476,213.625935 Z M1054.01995,183.700748 C1049.88814,183.700748 1046.53865,180.351257 1046.53865,176.219451 C1046.53865,172.087645 1049.88814,168.738155 1054.01995,168.738155 C1058.15176,168.738155 1061.50125,172.087645 1061.50125,176.219451 C1061.50125,180.351257 1058.15176,183.700748 1054.01995,183.700748 Z M1009.13217,168.738155 C1005.00036,168.738155 1001.65087,165.388664 1001.65087,161.256858 C1001.65087,157.125052 1005.00036,153.775561 1009.13217,153.775561 C1013.26398,153.775561 1016.61347,157.125052 1016.61347,161.256858 C1016.61347,165.388664 1013.26398,168.738155 1009.13217,168.738155 Z M869.98005,258.513716 C865.848244,258.513716 862.498753,255.164225 862.498753,251.032419 C862.498753,246.900613 865.848244,243.551122 869.98005,243.551122 C874.111856,243.551122 877.461347,246.900613 877.461347,251.032419 C877.461347,255.164225 874.111856,258.513716 869.98005,258.513716 Z M735.316708,78.9625935 C731.184902,78.9625935 727.835411,75.6131029 727.835411,71.4812968 C727.835411,67.3494906 731.184902,64 735.316708,64 C739.448514,64 742.798005,67.3494906 742.798005,71.4812968 C742.798005,75.6131029 739.448514,78.9625935 735.316708,78.9625935 Z M690.428928,93.925187 C686.297122,93.925187 682.947631,90.5756964 682.947631,86.4438903 C682.947631,82.3120842 686.297122,78.9625935 690.428928,78.9625935 C694.560734,78.9625935 697.910224,82.3120842 697.910224,86.4438903 C697.910224,90.5756964 694.560734,93.925187 690.428928,93.925187 Z M660.503741,108.887781 C656.371935,108.887781 653.022444,105.53829 653.022444,101.406484 C653.022444,97.2746777 656.371935,93.925187 660.503741,93.925187 C664.635547,93.925187 667.985037,97.2746777 667.985037,101.406484 C667.985037,105.53829 664.635547,108.887781 660.503741,108.887781 Z M585.690773,123.850374 C581.558967,123.850374 578.209476,120.500883 578.209476,116.369077 C578.209476,112.237271 581.558967,108.887781 585.690773,108.887781 C589.822579,108.887781 593.17207,112.237271 593.17207,116.369077 C593.17207,120.500883 589.822579,123.850374 585.690773,123.850374 Z M545.291771,179.21197 C541.159964,179.21197 537.810474,175.862479 537.810474,171.730673 C537.810474,167.598867 541.159964,164.249377 545.291771,164.249377 C549.423577,164.249377 552.773067,167.598867 552.773067,171.730673 C552.773067,175.862479 549.423577,179.21197 545.291771,179.21197 Z M545.291771,313.875312 C541.159964,313.875312 537.810474,310.525821 537.810474,306.394015 C537.810474,302.262209 541.159964,298.912718 545.291771,298.912718 C549.423577,298.912718 552.773067,302.262209 552.773067,306.394015 C552.773067,310.525821 549.423577,313.875312 545.291771,313.875312 Z M359.755611,454.523691 C355.623805,454.523691 352.274314,451.1742 352.274314,447.042394 C352.274314,442.910588 355.623805,439.561097 359.755611,439.561097 C363.887417,439.561097 367.236908,442.910588 367.236908,447.042394 C367.236908,451.1742 363.887417,454.523691 359.755611,454.523691 Z M307.386534,529.336658 C303.254728,529.336658 299.905237,525.987168 299.905237,521.855362 C299.905237,517.723555 303.254728,514.374065 307.386534,514.374065 C311.51834,514.374065 314.86783,517.723555 314.86783,521.855362 C314.86783,525.987168 311.51834,529.336658 307.386534,529.336658 Z M284.942643,155.27182 C280.810837,155.27182 277.461347,151.92233 277.461347,147.790524 C277.461347,143.658718 280.810837,140.309227 284.942643,140.309227 C289.074449,140.309227 292.42394,143.658718 292.42394,147.790524 C292.42394,151.92233 289.074449,155.27182 284.942643,155.27182 Z M269.98005,170.234414 C265.848244,170.234414 262.498753,166.884923 262.498753,162.753117 C262.498753,158.621311 265.848244,155.27182 269.98005,155.27182 C274.111856,155.27182 277.461347,158.621311 277.461347,162.753117 C277.461347,166.884923 274.111856,170.234414 269.98005,170.234414 Z M240.054863,170.234414 C235.923057,170.234414 232.573566,166.884923 232.573566,162.753117 C232.573566,158.621311 235.923057,155.27182 240.054863,155.27182 C244.186669,155.27182 247.53616,158.621311 247.53616,162.753117 C247.53616,166.884923 244.186669,170.234414 240.054863,170.234414 Z M240.054863,140.309227 C235.923057,140.309227 232.573566,136.959736 232.573566,132.82793 C232.573566,128.696124 235.923057,125.346633 240.054863,125.346633 C244.186669,125.346633 247.53616,128.696124 247.53616,132.82793 C247.53616,136.959736 244.186669,140.309227 240.054863,140.309227 Z M90.4289277,140.309227 C86.2971216,140.309227 82.9476309,136.959736 82.9476309,132.82793 C82.9476309,128.696124 86.2971216,125.346633 90.4289277,125.346633 C94.5607338,125.346633 97.9102244,128.696124 97.9102244,132.82793 C97.9102244,136.959736 94.5607338,140.309227 90.4289277,140.309227 Z M75.4663342,155.27182 C71.3345281,155.27182 67.9850374,151.92233 67.9850374,147.790524 C67.9850374,143.658718 71.3345281,140.309227 75.4663342,140.309227 C79.5981403,140.309227 82.9476309,143.658718 82.9476309,147.790524 C82.9476309,151.92233 79.5981403,155.27182 75.4663342,155.27182 Z M69.4812968,200.159601 C65.3494906,200.159601 62,196.81011 62,192.678304 C62,188.546498 65.3494906,185.197007 69.4812968,185.197007 C73.6131029,185.197007 76.9625935,188.546498 76.9625935,192.678304 C76.9625935,196.81011 73.6131029,200.159601 69.4812968,200.159601 Z M638.05985,499.411471 C633.928044,499.411471 630.578554,496.061981 630.578554,491.930175 C630.578554,487.798368 633.928044,484.448878 638.05985,484.448878 C642.191656,484.448878 645.541147,487.798368 645.541147,491.930175 C645.541147,496.061981 642.191656,499.411471 638.05985,499.411471 Z M727.835411,245.047382 C723.703605,245.047382 720.354115,241.697891 720.354115,237.566085 C720.354115,233.434279 723.703605,230.084788 727.835411,230.084788 C731.967218,230.084788 735.316708,233.434279 735.316708,237.566085 C735.316708,241.697891 731.967218,245.047382 727.835411,245.047382 Z" id="path-1"></path>
        <filter x="-0.6%" y="-1.1%" width="101.3%" height="103.0%" filterUnits="objectBoundingBox" id="filter-2">
            <feOffset dx="0" dy="2" in="SourceAlpha" result="shadowOffsetOuter1"></feOffset>
            <feGaussianBlur stdDeviation="2" in="shadowOffsetOuter1" result="shadowBlurOuter1"></feGaussianBlur>
            <feColorMatrix values="0 0 0 0 0   0 0 0 0 0   0 0 0 0 0  0 0 0 0.5 0" type="matrix" in="shadowBlurOuter1"></feColorMatrix>
        </filter>
    </defs>
    <g id="ðŸ --Public-Web" stroke="none" stroke-width="1" fill="none" fill-rule="evenodd">
        <g id="Instructor-New" transform="translate(-134.000000, -2002.000000)" fill-rule="nonzero">
            <g id="Group-11" transform="translate(0.000000, 1744.000000)">
                <g id="Group-4" transform="translate(134.000000, 258.000000)">
                    <g id="Group-12">
                        <path d="M518.7908,196.572013 C518.7908,196.572013 520.475588,199.26528 521.488556,199.947574 C522.500027,200.622387 525.193294,199.947574 527.551399,198.265779 C529.909504,196.582487 531.256137,198.603934 533.276087,198.265779 C535.296037,197.927624 536.644167,197.590966 539.000775,198.602437 C541.357384,199.612412 543.713992,197.590966 545.39878,196.244333 C547.083568,194.897699 548.093543,195.571016 548.093543,195.571016 C548.093543,195.571016 551.799778,194.225879 564.933942,193.214407 C578.068107,192.202936 569.311997,193.214407 572.00676,192.202936 C574.701524,191.192961 578.069603,190.857799 580.426212,189.846328 C582.78282,188.834856 581.437683,190.519644 583.120975,191.529619 C584.804267,192.539594 581.099529,194.896203 580.76287,197.590966 C580.426212,200.285729 580.089553,199.946078 580.426212,204.325629 C580.76287,208.703684 584.469105,204.328622 587.162371,209.715156 C589.855638,215.101689 592.551898,210.386976 595.245164,212.071764 C597.938431,213.756552 600.633194,213.758048 606.021224,217.797949 C611.409254,221.837849 612.419229,219.816402 616.123967,220.154557 C619.828706,220.491215 618.14691,221.839345 618.820227,219.144582 C619.493543,216.449819 622.524965,216.113161 622.524965,210.725131 C622.524965,205.337101 623.196785,209.040343 624.544915,210.386976 C625.893045,211.733609 629.256636,211.398447 631.279578,213.755056 C633.302521,216.111664 638.018731,214.426876 641.385314,216.448323 C644.751898,218.469769 652.836187,216.449819 657.214242,217.459794 C661.592297,218.469769 665.297035,218.131614 668.328456,218.469769 C671.358381,218.806427 672.369853,217.796452 674.051648,217.459794 C675.736436,217.123136 677.08307,215.438348 680.787808,208.36553 C680.787808,208.36553 682.135937,204.660791 683.145913,199.272762 C684.155888,193.884732 682.807758,196.579495 682.4711,194.22139 C682.135937,191.864781 678.094541,193.886228 677.08307,193.211415 C676.071598,192.536602 670.682072,193.548073 668.32696,192.874757 C665.968855,192.199944 664.28706,193.548073 661.5908,193.211415 C658.894541,192.874757 656.199778,193.208422 654.516486,192.536602 C652.833194,191.864781 651.151399,191.526627 648.793294,189.168522 C646.435189,186.810417 644.750401,188.158547 645.085563,183.778996 C645.425214,179.399445 643.737434,178.727624 645.085563,174.686228 C646.433693,170.644831 642.055638,171.991465 638.3509,174.686228 C634.646162,177.380991 632.961374,174.34957 631.276586,174.014407 C629.59479,173.677749 629.932945,176.371016 629.59479,177.717649 C629.256636,179.064283 633.301025,183.104183 634.647658,183.778996 C635.994292,184.453809 631.276586,185.800442 631.276586,185.800442 C631.276586,185.800442 630.941424,188.158547 630.941424,189.50518 C630.941424,190.851814 629.59479,191.189969 628.583319,190.516652 C627.573344,189.841839 627.236686,191.863285 626.226711,190.179993 C625.216735,188.495205 624.20676,187.483734 623.195289,186.137101 C622.18681,184.790467 620.840177,181.422387 620.165364,180.075754 C619.490551,178.729121 617.470601,177.382487 616.797284,176.707674 C616.123967,176.032861 615.452147,172.666278 615.452147,169.634856 C615.452147,166.603435 612.755888,164.920143 610.399279,165.256801 C608.044167,165.59346 607.704516,163.572013 604.674591,161.550567 C601.644666,159.529121 602.316486,158.8573 598.948406,156.835854 C595.580327,154.814407 593.225214,152.457799 589.51898,151.784482 C585.812745,151.111166 587.831199,154.141091 588.507509,156.499195 C589.183818,158.8573 589.855638,158.18548 592.213743,160.878747 C594.571848,163.572013 595.580327,164.581988 595.580327,164.581988 C595.580327,164.581988 600.633194,167.951565 602.654641,168.288223 C604.676087,168.624881 608.715987,174.351066 610.400775,175.361041 C612.085563,176.371016 611.412247,175.697699 610.73893,177.044333 C610.065613,178.390966 609.054142,177.044333 607.37085,176.032861 C605.686062,175.022886 606.022721,177.377998 605.686062,179.399445 C605.349404,181.420891 605.686062,181.084233 605.686062,181.084233 C605.686062,181.084233 599.289553,187.820392 598.278082,188.830368 C597.268107,189.841839 594.908506,188.157051 593.226711,186.810417 C591.543419,185.462288 595.919977,186.808921 597.604765,186.137101 C599.289553,185.46528 602.656137,181.423884 603.329454,180.075754 C604.00277,178.727624 601.646162,178.054308 601.646162,178.054308 C601.646162,178.054308 599.289553,175.696203 598.949903,174.686228 C598.61474,173.677749 595.921474,172.329619 593.226711,169.971515 C590.531947,167.61341 589.185314,168.28523 587.837184,167.61341 C586.489055,166.941589 584.805763,165.931614 582.784317,164.920143 C580.76287,163.911664 579.416237,159.530617 578.406262,158.522138 C577.396287,157.512163 576.049653,158.183983 576.049653,158.183983 C576.049653,158.183983 573.35489,158.8573 572.344915,157.174008 C571.33494,155.490717 569.989803,156.838846 570.661623,161.216901 C571.333444,165.594956 561.904017,162.226876 560.220726,161.888722 C558.537434,161.550567 555.169354,165.256801 555.169354,165.256801 L551.127957,171.318148 C551.127957,171.318148 547.423219,172.329619 545.739928,173.339594 C544.056636,174.34957 541.025214,179.400941 542.035189,181.422387 C543.045164,183.443834 541.701524,184.117151 539.678581,186.137101 C537.655638,188.157051 530.919479,190.513659 529.236187,192.535106 C527.552895,194.556552 524.858132,193.881739 522.163369,192.196951 C519.470102,190.515156 517.448656,191.526627 516.438681,191.188472 C515.428706,190.850318 510.713992,190.178497 510.713992,190.178497 C510.713992,190.178497 508.692546,188.828871 508.017733,185.798946 C507.345913,182.767525 507.344416,180.747574 508.355888,178.726128 C509.367359,176.704682 509.030701,172.661789 508.694042,169.631864 C508.355888,166.601939 509.029204,163.908672 512.060626,161.549071 C515.090551,159.193959 512.060626,159.865779 516.438681,160.203934 C520.818232,160.539096 523.508506,161.549071 527.21474,163.570517 C530.920975,165.591964 532.942421,163.233859 534.289055,162.560542 C535.635688,161.887225 535.634192,163.908672 537.31898,160.87725 C539.003768,157.845829 536.647159,157.172512 538.330451,154.814407 C540.013743,152.456303 537.31898,152.794457 537.31898,152.794457 C537.31898,152.794457 535.637184,148.753061 534.625713,148.414906 C533.614242,148.076752 532.604267,146.730118 530.584317,145.383485 C528.564366,144.036851 525.532945,142.35356 534.962371,142.690218 C544.391798,143.026876 531.93095,139.322138 531.257633,137.975505 C530.584317,136.628871 533.27908,135.279245 536.983818,135.954058 C540.688556,136.628871 538.664117,135.954058 540.350401,135.6174 C542.036686,135.280742 541.698531,134.944083 544.729952,134.607425 C547.761374,134.270767 547.423219,133.598946 548.771349,133.260791 C550.116486,132.924133 550.791299,130.230866 554.496037,127.197949 C558.202272,124.168023 555.506012,127.197949 559.21075,125.851315 C562.915489,124.504682 560.220726,120.461789 562.242172,119.789969 C564.263618,119.118148 565.94691,118.106677 569.988307,117.768522 C574.029703,117.43336 569.988307,117.768522 570.998282,117.43336 C572.008257,117.095205 574.026711,113.39346 576.72297,112.043834 C579.419229,110.694208 577.396287,113.053809 578.744416,114.063784 C580.092546,115.073759 583.123967,114.400442 585.143918,113.053809 C587.163868,111.707175 589.183818,112.380492 592.551898,113.053809 C595.919977,113.727126 594.236686,115.748572 595.919977,115.748572 C597.603269,115.748572 598.949903,116.757051 599.961374,115.410417 C600.971349,114.062288 604.339429,112.378996 606.024217,112.378996 C607.706012,112.378996 610.73893,112.717151 610.73893,112.717151 C610.73893,112.717151 612.757384,113.053809 613.768855,113.053809 C614.780327,113.053809 619.830202,109.687225 619.156885,104.635854 C618.483568,99.5844822 622.86312,102.951066 624.881573,103.287724 C626.90302,103.624382 629.597783,101.941091 627.239678,95.2049311 C624.881573,88.4687715 628.927459,93.1864772 631.619229,93.8582977 C634.311,94.5301181 638.015738,92.5116643 639.700526,90.8268762 C641.385314,89.1420882 639.028706,87.1221381 638.017234,86.4488214 C637.007259,85.7755047 633.640676,87.1221381 631.619229,86.7839835 C629.597783,86.4473251 626.229703,87.7954548 624.544915,87.7954548 C622.86312,87.7954548 619.158381,82.4044324 619.831698,81.7326119 C620.505015,81.0607915 623.536436,75.669769 625.219728,73.6498189 C626.90302,71.6298688 625.557883,70.2832353 625.557883,70.2832353 C625.557883,70.2832353 624.886062,65.9006917 614.781823,72.3016892 C604.677583,78.7026867 609.054142,75.3331107 608.382322,78.7011905 C607.710501,82.0692703 606.697534,83.0807416 606.697534,86.4488214 C606.697534,89.8169012 610.06711,91.5001929 610.06711,91.5001929 C610.06711,91.5001929 605.352396,96.8897191 605.352396,99.2463276 C605.352396,101.602936 597.94292,106.317649 597.94292,106.317649 C597.94292,106.317649 594.57484,108.674258 593.901524,107.665779 C593.228207,106.654308 587.838681,106.990966 588.176835,102.276253 C588.51499,97.5615396 583.79878,98.2378488 576.389304,93.184981 C568.979828,88.1321131 569.989803,93.5186468 568.306511,95.2034348 C566.623219,96.8882229 565.948406,84.7640333 567.969853,81.3959535 C569.991299,78.0278737 567.969853,81.3959535 569.991299,81.0592952 C572.012745,80.7226368 574.706012,80.7226368 577.400775,79.3760034 C580.095538,78.02937 578.748905,76.3460782 579.422222,74.3246319 C580.095538,72.3031855 587.168356,66.9166518 589.189803,65.2318638 C591.211249,63.5470757 598.282571,58.8308663 600.975838,56.4742578 C603.669105,54.1176493 606.700526,52.7710159 610.743419,49.7395944 C614.786312,46.708173 616.469603,47.3814897 619.499529,47.0448314 C622.532446,46.708173 624.890551,47.3814897 628.257134,47.7181481 C631.623718,48.0548064 634.991798,47.3814897 637.348406,48.0548064 C639.705015,48.7281231 643.409753,49.3999436 652.167359,50.7480732 C660.924965,52.0962029 654.525464,51.42139 660.924965,53.7794947 C667.32297,56.1361032 667.658132,54.790966 671.701025,56.8109161 C675.743918,58.8308663 672.708007,60.514158 672.037683,62.1989461 C671.367359,63.8837341 666.987808,64.5555545 664.293045,62.1989461 C661.598282,59.8423376 659.241673,61.8607915 654.188805,62.8722628 C649.135937,63.8837341 661.93494,70.2832353 664.293045,73.9864772 C666.648157,77.6912154 670.692546,72.9779984 677.763868,67.2518139 C684.835189,61.5256294 683.153394,63.8852304 688.878082,61.1904673 C694.60277,58.4957042 698.647159,58.8338588 699.992297,56.8124124 C701.337434,54.790966 708.073593,54.7939585 709.758381,56.8124124 C711.443169,58.8308663 716.156386,54.7894698 718.177833,56.4742578 C720.199279,58.1590458 721.884067,53.780991 726.935439,51.4228862 C731.98681,49.0647815 730.634192,51.4228862 735.015239,54.4543077 C739.396287,57.4857291 738.721474,55.1291206 741.079578,56.8124124 C743.437683,58.4957042 753.203768,59.8423376 756.908506,55.8009411 C760.611748,51.7595446 755.55888,55.8009411 752.865613,50.0762528 C750.172346,44.3515645 749.163868,48.392961 748.153893,42.3301181 C747.143918,36.2672752 750.847159,38.9620383 755.225214,38.9620383 C759.603269,38.9620383 757.246661,40.310168 759.939928,40.9834847 C762.633194,41.6568014 762.298032,43.6782478 763.644666,45.0248812 C764.991299,46.3715146 765.664616,48.0548064 766.001274,50.7495695 C766.337933,53.4443326 765.329454,58.1590458 766.337933,58.8323625 C767.347908,59.5071755 766.67908,61.863784 773.075588,60.1804922 C779.472097,58.4972004 772.737434,54.790966 769.707509,44.0149062 C766.676087,33.2373501 773.415239,49.0662777 777.118481,53.1076742 C780.821723,57.1490708 783.853144,50.4129112 783.853144,49.4029361 C783.853144,48.392961 782.169853,46.3715146 780.821723,40.9834847 C779.473593,35.5954548 783.519479,38.62538 789.915987,36.2687715 C796.312496,33.912163 796.652147,34.9221381 803.385314,34.5854797 C810.118481,34.2488214 814.837683,31.8907166 818.204267,27.8508164 C821.57085,23.8109161 823.257134,26.504183 824.603768,26.504183 C825.950401,26.504183 828.981823,25.4957042 841.442671,25.1575496 C853.902022,24.8208912 844.474092,26.504183 850.533942,27.1774997 C856.593793,27.8508164 856.261623,26.1660284 860.301524,26.504183 C864.341424,26.8423376 866.026212,27.8508164 867.708007,28.5256294 C869.392795,29.1989461 867.037683,30.8822378 866.026212,31.2188962 C865.016237,31.5555545 862.99479,34.2488214 861.311499,36.9435845 C859.628207,39.6383476 864.679578,39.6383476 873.435688,38.6268762 C882.193294,37.6183974 882.866611,39.9750059 885.224716,40.984981 C887.58282,41.994956 894.31898,42.669769 897.347409,42.3331107 C900.380327,41.9964523 906.100526,39.3016892 910.818232,39.3016892 C915.535937,39.3016892 915.532945,40.3116643 918.901025,39.9750059 C922.269105,39.6383476 922.269105,40.9879735 926.310501,43.0064274 C930.351898,45.0248812 933.719977,44.6897191 938.098032,45.3630358 C942.476087,46.0363526 942.476087,45.7011905 945.844167,45.7011905 C949.212247,45.7011905 950.894042,46.3745072 951.90701,47.0478239 C952.919977,47.7211406 958.305015,47.3844822 959.653144,47.3844822 C961.001274,47.3844822 963.022721,44.6897191 965.042671,43.3430857 C967.062621,41.9964523 966.3908,43.0079236 967.737434,39.3016892 C969.084067,35.5984473 968.748905,39.9765022 972.788805,40.6498189 C976.828706,41.3231356 976.492047,41.994956 978.51499,42.3331107 C980.53494,42.6682728 982.55489,45.0248812 984.239678,45.3630358 C985.924466,45.7011905 992.994292,46.0363526 996.025713,46.0363526 C999.057134,46.0363526 1005.79329,45.7011905 1011.51798,46.0363526 C1017.24417,46.3745072 1022.29404,45.3630358 1024.65215,48.0577989 C1027.01025,50.752562 1032.73045,49.4074249 1041.1514,50.0792453 C1049.57235,50.7510658 1055.96736,51.7625371 1060.68506,53.1091705 C1065.40277,54.4558039 1067.08606,54.4573002 1068.09604,55.4672752 C1069.10601,56.4772503 1071.12895,50.0792453 1072.47559,49.742587 C1073.82222,49.4059286 1103.45713,55.1306169 1105.81524,55.1306169 C1108.17334,55.1306169 1112.5514,57.82538 1115.58282,58.835355 C1118.61424,59.8453301 1121.97933,58.835355 1125.68556,58.5001929 C1129.38881,58.1635346 1141.17783,60.8582977 1141.51299,62.2049311 C1141.85115,63.5530608 1147.23619,67.5944573 1148.24766,68.267774 C1149.25913,68.9410907 1140.84417,68.6044324 1138.48457,67.2577989 C1136.12496,65.9111655 1124.67708,63.2134099 1122.9923,63.5515645 C1121.30751,63.8897191 1120.96786,67.5959535 1119.28457,67.2577989 C1117.60127,66.9196443 1115.24167,68.6044324 1115.24167,68.6044324 L1122.31748,72.6443326 C1122.31748,72.6443326 1132.07609,78.3720134 1133.09055,78.0338588 C1134.10501,77.6957042 1131.40576,81.4019386 1130.39728,80.7271256 C1129.38731,80.0538089 1124.33594,80.7271256 1124.33594,80.7271256 C1124.33594,80.7271256 1128.71549,76.3475745 1118.94791,86.7884723 C1109.18033,97.22937 1114.90352,87.4632852 1114.2302,84.7685221 C1113.55689,82.073759 1110.53145,86.1151555 1108.50851,86.7884723 C1106.48556,87.461789 1098.74541,89.8183974 1100.08905,95.2079236 C1101.4327,100.59745 1104.12895,96.2178987 1108.17035,99.9226368 C1112.21175,103.627375 1110.52247,103.290717 1112.54691,108.342088 C1114.57135,113.39346 1111.53693,115.753061 1111.87659,118.782986 C1112.21324,121.814407 1111.87659,123.497699 1111.87659,126.865779 C1111.87659,130.233859 1110.52995,128.212412 1107.83369,126.190966 C1105.13743,124.16952 1105.81674,124.16952 1102.109,120.802936 C1098.40127,117.436353 1097.72945,118.446328 1097.05614,113.39346 C1096.38282,108.340592 1094.02621,112.381988 1090.31998,107.668772 C1086.61823,102.952562 1086.61823,103.961041 1086.61823,98.2363526 C1086.61823,92.5116643 1088.97334,92.8468264 1090.65813,90.4902179 C1092.34292,88.1336094 1089.31,84.7655296 1089.31,81.7326119 C1089.31,78.7026867 1086.27858,80.388971 1086.27858,80.388971 L1084.93494,79.0408413 C1084.93494,79.0408413 1083.92496,79.3774997 1081.2317,82.4074249 C1078.53693,85.4388463 1075.16437,83.0837341 1073.48107,80.7241331 C1071.79778,78.3675246 1069.43968,82.0722628 1067.41973,84.4303675 C1065.39978,86.7884723 1068.09304,88.8069261 1065.39978,93.1879735 C1062.70501,97.5645321 1063.04167,94.1964523 1057.65364,93.1879735 C1052.26262,92.1750059 1045.8706,92.5131605 1041.48806,90.8283725 C1037.10551,89.1435845 1031.71599,90.1535595 1030.37085,92.5116643 C1029.02571,94.869769 1023.63768,98.2363526 1023.63768,98.2363526 C1023.63768,98.2363526 1020.2696,103.625879 1021.61624,111.708672 C1022.96287,119.791465 1023.97135,113.058298 1025.9928,115.751565 C1028.01424,118.444831 1032.05713,115.411914 1040.81175,116.423385 C1049.56636,117.434856 1049.2327,118.109669 1051.5893,122.14957 C1053.94591,126.18947 1054.95888,127.537599 1058.66212,130.232363 C1062.36536,132.927126 1057.98282,138.651814 1058.99728,142.356552 C1060.01175,146.06129 1057.98581,148.417899 1059.6706,148.417899 C1061.35539,148.417899 1054.95888,157.848821 1054.95888,159.868772 C1054.95888,161.888722 1053.94591,161.216901 1053.94591,161.216901 C1053.94591,161.216901 1052.93594,161.888722 1047.88457,161.552063 C1042.83319,161.215405 1041.14841,163.238348 1041.82172,165.931614 C1042.49504,168.624881 1041.48207,169.63336 1039.46362,171.656303 C1037.44516,173.679245 1036.77484,178.729121 1038.79329,180.413909 C1040.81175,182.098697 1044.17983,184.453809 1049.56786,187.821889 C1054.95589,191.189969 1054.61923,193.548073 1054.61923,193.548073 C1054.61923,193.548073 1051.25713,199.60942 1049.2327,201.294208 C1047.20826,202.978996 1044.85314,203.650816 1042.49504,202.304183 C1040.13693,200.95755 1040.13693,200.620891 1040.13693,194.894707 C1040.13693,189.168522 1036.09703,190.516652 1032.3923,187.821889 C1028.68756,185.127126 1030.03419,186.811914 1030.03419,186.811914 C1030.03419,186.811914 1030.0327,181.422387 1028.3494,179.739096 C1026.66611,178.055804 1024.3095,177.382487 1024.3095,177.382487 C1024.3095,177.382487 1017.57484,184.453809 1017.23669,181.085729 C1016.89853,177.717649 1014.88008,179.065779 1014.54192,173.677749 C1014.20676,168.289719 1009.15389,174.015904 1008.14242,174.015904 C1007.13095,174.015904 1005.45215,178.393959 999.725962,185.46528 C993.999778,192.536602 1005.44915,189.843335 1009.82721,190.179993 C1014.20526,190.516652 1010.50053,191.526627 1015.5519,189.841839 C1020.60327,188.157051 1017.9115,190.177001 1017.57484,192.535106 C1017.23818,194.89321 1016.22521,194.556552 1014.20526,197.249819 C1012.18531,199.943086 1013.8701,200.279744 1014.54342,202.30119 C1015.21674,204.322637 1018.24666,207.690717 1022.62771,212.40543 C1027.00427,217.120143 1026.66761,217.120143 1027.33943,216.781988 C1028.01275,216.446826 1031.38232,227.897699 1032.05564,230.254308 C1032.72895,232.610916 1030.03419,238.000442 1029.02422,241.030368 C1028.01424,244.060293 1022.28806,250.796452 1020.26811,251.807924 C1018.24516,252.817899 1016.56487,253.492712 1010.83868,254.839345 C1005.1125,256.185978 1004.77434,259.2174 1004.77434,259.2174 C1004.77434,259.2174 1000.39329,263.261789 1001.74292,261.912163 C1003.09255,260.562537 1000.73294,265.27725 996.018232,273.360043 C991.303519,281.442836 992.650152,274.036353 992.650152,267.298697 C992.650152,260.561041 987.936935,260.900692 985.243668,259.215904 C982.550401,257.531116 980.530451,261.571016 976.1509,267.633859 C971.771349,273.696702 975.140925,274.03336 980.862621,278.748073 C986.587309,283.462786 986.587309,286.160542 991.976835,293.903684 C997.366361,301.646826 994.33494,300.975006 993.999778,304.004931 C993.660127,307.036353 986.252147,314.445829 983.557384,316.467275 C980.862621,318.488722 978.842671,320.84533 976.484566,318.823884 C974.13095,316.80543 972.443169,316.467275 972.106511,314.109171 C971.769853,311.751066 969.076586,312.764033 966.043668,307.711166 C963.013743,302.659794 962.340426,306.026377 960.992297,301.649819 C959.647159,297.271764 957.962371,298.956552 956.277583,300.639844 C954.592795,302.323136 953.917982,308.044831 954.592795,312.087724 C955.267608,316.130617 953.247658,321.855305 953.247658,321.855305 C953.581324,321.181988 951.230701,319.830866 950.554391,315.790966 C949.878082,311.751066 950.216237,311.414407 950.216237,307.034856 C950.216237,302.658298 950.889553,307.709669 950.554391,302.321639 C950.21474,296.933609 949.204765,296.932113 947.521474,291.544083 C945.838182,286.156053 945.501524,287.504183 943.481573,286.82937 C941.461623,286.154557 939.443169,291.880742 937.758381,289.859295 C936.073593,287.837849 936.073593,288.176003 936.073593,282.786477 C936.073593,277.396951 932.705514,280.091714 929.000775,275.715156 C925.296037,271.335604 925.969354,272.010417 924.959379,268.978996 C923.949404,265.947574 919.233194,260.222886 916.87509,259.886228 C914.518481,259.54957 911.488556,258.20144 909.803768,258.20144 C908.11898,258.20144 908.457134,258.538098 907.445663,257.528123 C906.434192,256.518148 901.720975,259.886228 899.026212,262.579495 C896.331449,265.272762 893.638182,267.964532 891.953394,270.324133 C890.268606,272.683734 882.856137,276.38548 881.511,276.723634 C880.165863,277.061789 877.472596,281.103185 876.797783,283.459794 C876.12297,285.816402 873.429703,288.850816 872.419728,293.900692 C871.409753,298.950567 873.429703,298.950567 873.429703,304.001939 C873.429703,309.05331 873.090052,308.377001 873.429703,311.746577 C873.769354,315.116153 871.744915,315.787973 871.744915,315.787973 C871.744915,315.787973 867.031698,320.166028 866.020227,320.504183 C865.010252,320.839345 861.30701,322.525629 860.967359,320.504183 C860.632197,318.48124 858.272596,317.80942 858.272596,315.114657 C858.272596,312.419894 856.252646,311.076253 855.915987,307.370018 C855.579329,303.663784 853.560875,305.010417 853.222721,300.969021 C852.884566,296.927624 845.476586,283.458298 843.791798,279.078747 C842.10701,274.699195 842.781823,276.386976 843.791798,269.985978 C844.801773,263.584981 840.766361,264.597949 841.436686,261.903185 C842.10701,259.208422 838.73893,260.891714 838.068606,261.903185 C837.395289,262.911664 833.012745,265.603435 830.319479,263.246826 C827.626212,260.890218 827.961374,259.880243 825.941424,257.522138 C823.921474,255.164033 823.248157,254.827375 819.880077,252.807425 C816.511997,250.787475 816.173843,247.08124 814.828706,247.08124 C813.483568,247.08124 808.092546,244.049819 808.092546,244.049819 L800.68307,243.377998 L794.286561,243.716153 C794.286561,243.716153 788.223718,243.713161 783.844167,243.04134 C779.464616,242.36952 779.46312,243.04134 777.779828,241.358048 C776.096536,239.674757 772.393294,239.335106 771.718481,236.643335 C771.043668,233.951565 770.373344,235.631864 768.688556,234.960043 C767.003768,234.288223 766.330451,235.295205 765.657134,234.623385 C764.983818,233.951565 761.615738,234.286727 757.574341,233.951565 C753.534441,233.614906 751.511499,231.255305 747.13494,228.22538 C742.755389,225.193959 740.060626,224.520642 738.377334,220.142587 C736.694042,215.764532 734.672596,223.509171 737.367359,228.562038 C740.062122,233.614906 739.72696,233.617899 740.062122,235.636353 C740.397284,237.654806 741.405763,237.991465 742.755389,243.044333 C744.105015,248.0972 746.461623,246.075754 748.818232,249.443834 C751.17484,252.811914 753.197783,249.443834 758.247658,248.435355 C763.300526,247.422387 761.277583,246.07725 766.330451,241.024382 C771.383319,235.971515 768.688556,241.024382 771.046661,245.400941 C773.404765,249.780492 773.069603,249.105679 776.436187,252.473759 C779.80277,255.841839 781.152396,255.167026 783.509005,257.188472 C785.865613,259.209919 782.159379,262.238348 779.466112,265.271265 C776.772845,268.304183 775.427708,268.637849 774.752895,270.660791 C774.078082,272.683734 770.708506,277.061789 767.678581,279.418397 C764.648656,281.775006 760.272097,285.814906 760.272097,285.814906 C760.272097,285.814906 749.494541,290.866278 748.146411,290.866278 C746.798282,290.866278 734.675588,298.613909 734.675588,298.613909 L726.591299,300.635355 C726.591299,300.635355 720.531449,298.949071 720.193294,297.602437 C719.855139,296.255804 716.826711,290.531116 716.826711,286.153061 C716.826711,281.775006 710.425713,275.040343 709.752396,273.018896 C709.07908,270.99745 704.704017,266.95755 703.355888,264.936103 C702.007758,262.914657 698.636686,257.525131 698.30302,256.178497 C697.969354,254.831864 695.944915,251.463784 694.261623,246.749071 C692.579828,242.034358 685.504017,235.631864 685.504017,234.286727 C685.504017,232.941589 681.464117,229.235355 680.452646,229.235355 C679.441174,229.235355 676.747908,230.246826 676.747908,230.246826 C676.747908,230.246826 672.033194,226.878747 671.69504,225.868772 C671.358381,224.8573 673.041673,230.248323 674.053144,231.256801 C675.064616,232.268273 682.809254,247.759046 683.482571,250.790467 C684.157384,253.820392 685.504017,254.83336 686.513992,258.199944 C687.523967,261.566527 688.870601,262.24134 690.892047,268.304183 C692.913494,274.367026 694.260127,272.682238 695.943419,277.060293 C697.626711,281.436851 698.300027,280.431365 700.99479,283.796452 C703.689553,287.16154 703.355888,285.143086 706.385813,289.519644 C709.414242,293.899195 710.765364,295.245829 712.783818,298.613909 C714.802272,301.981988 715.475588,304.675255 716.48706,309.389969 C717.498531,314.104682 719.855139,310.736602 722.888057,311.411415 C722.888057,311.411415 727.93494,309.729619 737.704017,310.40144 C747.473095,311.07326 744.105015,309.728123 745.450152,309.389969 C746.798282,309.05331 750.838182,308.379993 751.511499,307.706677 C752.184815,307.03336 748.818232,320.167525 748.146411,322.525629 C747.471598,324.882238 743.76686,329.261789 743.76686,329.261789 C743.76686,329.261789 741.073593,332.629869 740.738431,333.638348 C740.400277,334.651315 735.684067,341.04932 733.327459,344.415904 C730.97085,347.782487 726.927957,350.816901 725.244666,352.163535 C723.561374,353.510168 721.204765,356.876752 718.846661,360.582986 C716.488556,364.286228 709.753893,372.030866 709.753893,372.030866 C709.753893,372.030866 705.375838,377.420392 704.365863,378.768522 C703.355888,380.115156 700.996287,383.484732 700.996287,384.829869 C700.996287,386.175006 700.325962,390.556053 701.6711,392.239345 C703.016237,393.922637 703.355888,400.658796 705.375838,406.046826 C707.395788,411.434856 706.052147,410.086727 706.723967,415.812911 C707.395788,421.539096 707.395788,422.547574 707.395788,423.559046 C707.395788,424.570517 705.374341,428.948572 705.374341,430.63336 C705.374341,432.318148 700.321474,435.686228 697.966361,437.031365 C695.60676,438.379495 695.271598,439.38947 693.58681,440.399445 C691.902022,441.40942 686.850651,447.807425 686.850651,447.807425 C686.850651,447.807425 683.147409,452.8573 682.809254,457.910168 C682.4711,462.963036 683.485563,459.597949 684.157384,460.607924 C684.829204,461.617899 684.157384,465.995954 684.829204,469.025879 C685.502521,472.0573 683.817733,470.709171 682.807758,471.047325 C681.797783,471.38548 680.787808,473.403934 679.104516,474.415405 C677.421224,475.426876 675.398282,477.107175 673.713494,481.488223 C672.028706,485.86927 672.703519,484.179993 671.692047,485.528123 C670.680576,486.876253 670.343918,487.886228 669.670601,489.571016 C668.997284,491.255804 668.323967,493.610916 665.967359,494.284233 C663.61075,494.95755 661.587808,498.663784 659.567858,500.347076 C657.547908,502.030368 657.88307,502.031864 654.853144,504.726627 C651.823219,507.42139 650.813244,508.768023 649.128456,510.449819 C647.443668,512.133111 645.764865,513.484233 644.415239,512.80942 C643.065613,512.134607 640.710501,514.82937 639.025713,514.82937 C637.340925,514.82937 635.656137,516.850816 633.972845,516.850816 C632.289553,516.850816 630.606262,517.860791 628.584815,516.850816 C626.563369,515.842338 623.86711,518.870767 622.521972,519.207425 C621.175339,519.544083 617.469105,517.187475 617.469105,517.187475 C617.469105,517.187475 616.123967,514.82937 615.112496,512.471265 C614.101025,510.113161 613.767359,505.060293 613.429204,503.041839 C613.09105,501.023385 611.745913,499.675255 610.734441,497.317151 C609.72297,494.959046 610.059628,495.633859 608.712995,493.949071 C607.366361,492.264283 606.019728,490.919146 603.998282,488.561041 C601.976835,486.202936 603.324965,485.866278 602.988307,484.518148 C602.651648,483.171515 602.317982,480.138597 601.641673,479.128622 C600.965364,478.118647 601.303519,473.740592 601.303519,472.055804 C601.303519,470.371016 600.96686,469.024382 600.293543,466.331116 C599.620227,463.637849 598.273593,462.963036 597.935439,460.941589 C597.600277,458.921639 596.590302,455.890218 594.905514,452.860293 C593.220726,449.828871 591.874092,446.121141 589.180825,442.754557 C586.487558,439.387973 588.506012,439.38947 588.17085,436.02139 C587.834192,432.65331 589.180825,430.295205 589.854142,427.938597 L591.875588,424.910168 L594.905514,419.182487 L595.57883,417.161041 C595.57883,417.161041 596.253643,412.782986 596.590302,411.773011 C596.923967,410.763036 595.57883,407.730118 594.568855,406.046826 C593.55888,404.363535 594.568855,404.026876 594.905514,401.668772 C595.242172,399.313659 594.568855,399.315156 594.232197,395.945579 C593.895538,392.576003 592.213743,392.239345 590.865613,389.207924 C589.517484,386.176502 588.844167,384.829869 588.506012,382.47326 C588.172346,380.116652 585.477583,376.410417 584.466112,375.062288 C583.456137,373.717151 581.434691,371.360542 578.403269,368.665779 C575.371848,365.971016 576.719977,364.624382 576.719977,364.624382 C576.719977,364.624382 577.393294,360.246328 578.403269,359.234856 C579.413244,358.224881 579.411748,353.846826 579.749903,351.826876 C580.088057,349.806926 578.066611,344.4174 578.066611,344.4174 L577.055139,343.070767 L574.025214,339.704183 C574.025214,339.704183 570.992297,340.040841 570.320476,338.692712 C569.648656,337.344582 566.952396,339.364532 566.952396,339.364532 L564.93095,339.02937 C564.93095,339.02937 562.911,337.68124 562.574341,336.333111 C562.237683,334.984981 560.554391,333.975006 559.544416,332.629869 C558.534441,331.283235 557.186312,332.291714 556.17484,331.280243 C555.164865,330.271764 554.15489,331.280243 551.123469,330.271764 C548.092047,329.263285 548.765364,331.280243 547.082072,330.608422 C545.39878,329.936602 543.716985,331.280243 542.368855,331.280243 C541.020726,331.280243 537.651149,333.303185 536.641174,333.303185 C535.631199,333.303185 532.26312,334.651315 530.916486,334.651315 C529.569853,334.651315 527.551399,336.333111 526.203269,335.996452 C524.855139,335.659794 523.846661,336.668273 522.161873,335.659794 C520.477085,334.651315 518.120476,337.007924 517.110501,337.68124 C516.100526,338.354557 512.395788,339.702687 511.047658,339.027874 C509.699529,338.353061 507.004765,340.040841 505.658132,339.027874 C504.311499,338.014906 501.95489,338.353061 500.943419,337.343086 C499.93494,336.333111 496.905015,335.66129 495.893543,334.313161 C494.882072,332.965031 490.504017,329.599944 490.504017,329.599944 C490.504017,329.599944 487.135937,325.895205 486.462621,324.883734 C485.789304,323.872263 483.094541,320.169021 482.757883,319.159046 C482.421224,318.149071 479.726461,313.432861 479.389803,312.422886 C479.053144,311.412911 476.696536,309.392961 475.348406,308.044831 C474.000277,306.696702 469.95888,304.340093 469.95888,304.340093 C469.95888,304.340093 468.948905,302.320143 469.622222,301.308672 C470.297035,300.298697 469.285563,295.919146 469.285563,295.919146 C469.285563,295.919146 467.26711,292.892213 467.93893,291.205929 C468.61075,289.519644 470.632197,285.817899 471.305514,283.796452 C471.97883,281.775006 471.97883,280.090218 472.652147,275.713659 C473.32696,271.334108 472.653643,272.010417 471.97883,269.988971 C471.304017,267.967525 471.305514,266.95755 470.967359,261.231365 L471.642172,259.548073 C471.642172,259.548073 474.336935,255.170018 475.34691,251.46528 C476.356885,247.760542 478.378332,245.402437 479.051648,244.392462 C479.724965,243.382487 481.071598,242.03735 482.419728,240.015904 C483.767858,237.994457 485.451149,235.974507 486.461125,235.30119 C487.4711,234.627874 489.154391,232.606427 489.154391,232.606427 C489.154391,232.606427 491.849154,229.575006 493.870601,228.228373 C495.892047,226.881739 500.60676,222.503684 500.60676,222.503684 C500.60676,222.503684 500.60676,219.473759 500.268606,217.788971 C499.930451,216.104183 502.625214,213.40942 502.625214,213.40942 L503.636686,210.377998 L510.371349,206.674757 L513.737933,203.306677 L518.7908,196.572013 Z M744.097534,418.172512 L746.457134,425.586477 C746.457134,425.586477 746.457134,428.28124 746.457134,429.627874 C746.457134,430.974507 746.11898,432.322637 745.445663,433.66927 C744.772346,435.015904 744.435688,439.733609 744.09903,441.752063 C743.762371,443.770517 741.405763,446.462288 741.405763,448.148572 C741.405763,449.834856 738.037683,454.546577 738.037683,455.558048 C738.037683,456.566527 734.669603,460.946078 735.004765,461.956053 C735.344416,462.967525 733.658132,467.344083 733.99479,471.050318 C734.334441,474.752063 731.301524,474.081739 731.301524,474.081739 C731.301524,474.081739 728.608257,476.436851 725.913494,476.436851 C723.218731,476.436851 721.872097,477.446826 721.872097,477.446826 L717.492546,470.710667 C717.492546,470.710667 717.49105,463.639345 717.154391,461.28124 C716.817733,458.923136 718.501025,458.248323 720.185813,457.575006 C721.870601,456.901689 722.880576,453.536602 722.880576,450.841839 C722.880576,448.147076 722.880576,446.125629 723.215738,445.114158 C723.553893,444.105679 723.215738,440.399445 722.205763,437.368023 C721.197284,434.338098 724.227209,435.012911 724.227209,435.012911 C724.227209,435.012911 727.595289,433.326627 728.941923,432.991465 C730.291548,432.654806 732.645164,430.63336 732.645164,430.63336 L739.38282,427.26528 C739.38282,427.26528 743.087558,421.878747 744.097534,418.172512 Z M1007.79679,463.639345 C1007.79679,463.639345 1009.1509,462.291215 1010.49753,461.953061 C1011.84417,461.614906 1013.52447,460.943086 1015.54741,458.921639 C1017.57035,456.900193 1018.91399,456.565031 1020.93693,456.228373 C1022.95689,455.891714 1023.63319,454.881739 1026.66312,454.543584 C1029.69454,454.208422 1028.68457,454.208422 1033.06112,452.186976 C1037.43768,450.16553 1038.1125,450.16553 1041.14093,448.482238 C1044.17384,446.79745 1043.16387,446.460791 1044.17384,446.124133 C1045.18382,445.787475 1045.51898,443.42937 1046.53195,440.734607 C1047.54192,438.039844 1048.21674,438.379495 1048.88856,436.694707 C1049.56038,435.009919 1049.22521,437.704682 1050.23519,438.04134 C1051.24516,438.379495 1051.58182,440.06129 1052.5918,439.723136 C1053.60028,439.386477 1053.59878,436.019894 1053.93693,434.671764 C1054.27509,433.323634 1056.96836,433.323634 1057.97833,431.977001 C1058.98831,430.630368 1058.9928,429.283734 1060.33644,427.600442 C1061.68008,425.917151 1063.37085,425.242338 1065.3893,424.232363 C1067.40776,423.222387 1068.7529,425.578996 1070.10102,427.262288 C1071.44915,428.945579 1069.76586,429.283734 1069.76586,429.283734 C1069.76586,429.283734 1076.8312,432.315156 1077.84566,431.640343 C1078.86013,430.96553 1076.83718,429.958547 1078.18531,426.252313 C1079.53344,422.546078 1079.19978,424.905679 1081.21823,424.230866 C1083.23669,423.556053 1081.21823,424.230866 1083.57185,421.874258 C1085.92995,419.516153 1087.61175,416.819894 1091.31798,415.809919 C1095.02422,414.799944 1092.32347,415.47326 1093.67459,415.47326 C1095.02571,415.47326 1096.0327,415.808422 1099.73743,416.146577 C1103.44217,416.484732 1103.77883,416.484732 1105.46362,416.484732 C1107.14841,416.484732 1107.14841,418.504682 1107.14841,418.504682 C1107.14841,418.504682 1105.12546,421.537599 1104.7903,422.884233 C1104.45215,424.232363 1104.11549,427.262288 1103.78033,428.608921 C1103.44217,429.955555 1105.12546,432.315156 1106.13693,432.315156 C1107.14841,432.315156 1108.15838,435.008422 1109.50501,435.343584 C1110.85314,435.681739 1113.54791,438.376502 1114.55788,439.386477 C1115.56786,440.396452 1117.5923,439.718647 1118.93594,440.058298 C1120.27958,440.397949 1121.29404,438.37351 1122.97733,438.711664 C1124.66063,439.049819 1125.6706,434.670268 1126.68058,432.988472 C1127.69055,431.30518 1130.38531,425.5775 1130.38531,425.5775 C1130.38531,425.5775 1131.73494,418.506178 1132.40826,414.80144 C1133.07858,411.099694 1133.75339,414.466278 1134.09304,415.139594 C1134.42821,415.811415 1135.43818,416.824382 1136.11299,419.517649 C1136.78781,422.210916 1138.4711,422.882737 1139.48107,425.242338 C1140.49105,427.601939 1141.16586,430.293709 1142.17584,432.316652 C1143.18432,434.335106 1143.18432,437.366527 1143.52247,438.713161 C1143.85763,440.059794 1143.51948,444.778996 1142.5095,445.450816 C1141.49953,446.122637 1145.54093,447.805929 1145.54093,447.805929 C1145.54093,447.805929 1149.58232,448.482238 1150.5923,454.880243 C1151.60227,461.278248 1154.29853,460.941589 1154.97185,463.299694 C1155.64516,465.657799 1157.66511,464.978497 1160.69654,466.329619 C1163.72796,467.680742 1160.69654,469.025879 1162.71798,472.393959 C1164.73943,475.762038 1163.05464,479.125629 1163.3913,481.48523 C1163.72796,483.844831 1162.71798,485.863285 1162.71798,487.209919 C1162.71798,488.556552 1160.02472,492.26129 1159.68806,496.30119 C1159.3514,500.345579 1158.00776,500.680742 1157.33145,501.692213 C1156.65514,502.703684 1153.96636,504.722138 1150.25863,510.448323 C1146.5509,516.174507 1146.5509,514.827874 1142.5095,517.857799 C1138.4711,520.88922 1139.47509,520.551066 1138.13145,521.899195 C1136.78781,523.247325 1134.76337,525.265779 1133.07858,527.287225 C1131.39379,529.308672 1130.05015,530.659794 1117.25265,536.382986 C1104.45514,542.106178 1111.86611,538.738098 1110.85165,537.392961 C1109.84167,536.044831 1106.47509,536.718148 1104.7918,535.708173 C1103.10701,534.698198 1102.4322,536.715156 1100.41374,537.054806 C1098.39529,537.394457 1096.0297,535.031864 1094.68606,533.68523 C1093.34242,532.338597 1093.00427,533.350068 1093.34242,530.991964 C1093.67758,528.636851 1091.99429,529.308672 1093.34242,526.27725 C1094.69055,523.247325 1091.31948,521.564033 1091.31948,521.564033 C1091.31948,521.564033 1089.97434,519.542587 1090.64766,517.857799 C1091.31948,516.176003 1093.34242,512.468273 1093.34242,510.786477 C1093.34242,509.101689 1090.98731,512.468273 1089.97434,512.468273 C1088.96137,512.468273 1082.56487,516.509669 1082.56487,516.509669 L1078.52197,516.847824 C1078.52197,516.847824 1078.86312,513.141589 1078.86312,511.458298 C1078.86312,509.775006 1073.80876,508.42538 1072.12546,505.058796 C1070.44217,501.692213 1066.73444,506.071764 1064.38083,505.058796 C1062.02272,504.051814 1056.97135,506.074757 1054.27659,505.398447 C1051.58182,504.722138 1050.57035,508.428373 1048.21374,508.428373 C1045.85713,508.428373 1040.80427,511.797949 1038.44616,510.786477 C1036.08806,509.775006 1034.06811,514.488223 1032.72147,513.816402 C1031.37484,513.144582 1026.32197,514.826377 1023.96387,514.826377 C1021.60876,514.826377 1019.92397,516.847824 1017.2292,516.847824 C1014.53444,516.847824 1011.16636,518.531116 1009.48307,518.86927 C1007.79978,519.207425 1003.75539,519.205929 1003.75539,519.205929 C1003.75539,519.205929 1001.40177,517.187475 1001.40177,516.176003 C1001.40177,515.167525 1002.07359,514.491215 1003.75539,514.82937 C1005.44167,515.166028 1004.43319,507.758048 1005.10501,505.399944 C1005.77684,503.041839 1004.77135,495.62937 1004.09504,493.610916 C1003.41873,491.592462 1004.76686,482.834856 1005.44018,481.151565 C1006.11349,479.468273 1006.78681,464.984482 1007.79679,463.639345 Z M1027.66561,330.609919 L1029.34891,331.280243 C1031.03369,331.956552 1032.04516,332.631365 1034.40028,334.986477 C1036.75838,337.344582 1034.73693,338.019395 1035.07509,340.039345 C1035.41324,342.059295 1034.06212,342.732612 1032.71549,346.100692 C1031.36886,349.468772 1033.05364,350.47725 1034.40028,353.17351 C1035.74691,355.869769 1034.40327,355.530118 1035.07509,356.879744 C1035.74691,358.22937 1033.3903,357.886727 1032.38033,359.236353 C1031.37035,360.585978 1032.38182,360.584482 1032.04367,362.942587 C1031.70551,365.300692 1029.34591,365.972512 1027.32746,367.993959 C1025.309,370.015405 1026.31748,371.023884 1026.65414,371.363535 C1026.9893,371.698697 1024.96786,375.068273 1023.95938,375.068273 C1022.9509,375.068273 1022.61275,375.741589 1020.92945,375.741589 C1019.24766,375.741589 1016.5499,374.731614 1016.5499,374.731614 C1016.5499,374.731614 1009.14342,374.06129 1006.78531,374.731614 C1004.42721,375.401939 1003.41873,373.042338 1002.0706,371.023884 C1000.72247,369.00543 999.715489,366.647325 999.375838,365.300692 C999.039179,363.954058 997.354391,360.250816 998.029204,358.902687 C998.704017,357.554557 996.684067,352.504682 1002.40726,355.196452 C1008.13045,357.888223 1005.43419,351.152063 1006.44716,351.490218 C1007.46013,351.828373 1009.14492,349.470268 1010.15489,345.092213 C1011.16487,340.714158 1014.19629,340.376003 1015.54292,340.714158 C1016.88955,341.052313 1018.57434,339.366028 1020.25913,339.030866 C1021.94242,338.692712 1026.32048,332.632861 1027.66561,330.609919 Z M1093.67459,364.28922 C1095.02422,363.952562 1099.73743,360.584482 1100.07559,366.647325 C1100.41374,372.710168 1100.74591,371.023884 1102.77035,374.391964 C1104.79479,377.760043 1106.13394,378.773011 1108.49205,377.088223 C1110.85015,375.403435 1113.54342,375.401939 1114.21674,372.37351 C1114.89155,369.342088 1114.89155,369.342088 1116.9115,369.342088 C1118.93145,369.342088 1119.60626,369.00543 1120.62073,370.355056 C1121.6292,371.698697 1122.29953,370.352063 1126.68058,372.710168 C1131.06162,375.068273 1134.76187,374.391964 1137.45963,376.751565 C1140.15738,379.111166 1141.50102,378.774507 1145.20427,380.119644 C1148.90751,381.464781 1147.22422,379.446328 1150.5923,383.151066 C1153.96038,386.855804 1152.61674,387.864283 1154.29703,389.549071 C1155.98033,391.232363 1157.32995,388.200941 1156.65514,392.242338 C1155.98033,396.283734 1151.26711,392.242338 1158.33993,397.96553 C1165.41275,403.688722 1166.42272,404.704682 1168.77783,406.386477 C1171.13743,408.071265 1172.82073,410.092712 1170.80227,410.092712 C1168.78382,410.092712 1162.38132,410.092712 1161.7095,409.08124 C1161.03768,408.069769 1158.00477,407.396452 1155.98182,405.039844 C1153.96337,402.684732 1149.58531,400.998447 1148.57684,398.978497 C1147.56387,396.955555 1146.21723,396.283734 1144.53394,396.283734 C1142.85065,396.283734 1141.16736,398.303684 1138.80776,400.661789 C1136.44816,403.019894 1137.46412,399.316652 1134.4297,400.325131 C1131.39679,401.336602 1128.03319,399.986976 1126.34691,398.640343 C1124.66063,397.293709 1125.00177,395.273759 1122.30851,396.283734 C1119.61524,397.293709 1117.93045,396.620392 1118.94043,394.600442 C1119.9504,392.580492 1119.27559,389.884233 1119.27559,389.884233 C1119.27559,389.884233 1120.28856,386.516153 1117.93195,385.844333 C1115.57534,385.172512 1115.57384,382.814407 1113.21574,382.138098 C1110.85763,381.461789 1107.15439,379.78149 1107.15439,379.78149 C1107.15439,379.78149 1106.81773,379.78149 1105.80626,379.444831 C1104.79479,379.108173 1104.79629,379.106677 1102.10152,378.434856 C1099.40676,377.763036 1097.38531,378.431864 1096.04018,376.750068 C1094.69055,375.066776 1095.36536,372.708672 1095.36536,372.708672 C1095.36536,372.708672 1100.75339,373.381988 1095.36536,369.340592 L1089.97733,365.300692 C1089.97733,365.300692 1090.64766,364.962537 1090.3125,364.28922 C1089.97285,363.612911 1093.67459,364.28922 1093.67459,364.28922 Z M942.119977,336.328622 C942.119977,336.328622 943.803269,338.014906 946.498032,337.676752 C949.192795,337.338597 951.209753,343.064781 952.897534,345.084732 C954.579329,347.106178 955.592297,348.116153 959.295538,350.474258 C962.99878,352.830866 962.662122,348.452811 967.71499,355.525629 C972.767858,362.598447 970.408257,358.220392 972.766361,362.596951 C975.12297,366.979495 976.4711,369.334607 977.817733,370.347574 C979.164366,371.360542 980.175838,374.04932 980.513992,375.060791 C980.849154,376.070767 983.205763,379.100692 983.205763,380.112163 C983.205763,381.123634 983.880576,383.816901 981.860626,386.17351 C979.840676,388.530118 978.154391,388.868273 978.154391,388.868273 C978.154391,388.868273 974.112995,386.846826 972.766361,384.826876 C971.419728,382.806926 969.736436,381.122138 967.376835,377.082238 C965.017234,373.042338 962.325464,368.66129 960.97883,366.64134 C959.632197,364.62139 957.61075,362.596951 956.600775,360.578497 C955.5908,358.560043 952.896037,352.495704 951.549404,351.820891 C950.20277,351.146078 949.864616,349.127624 947.506511,346.76952 C945.151399,344.411415 945.486561,342.391465 944.476586,341.044831 C943.466611,339.698198 941.110002,336.663784 941.110002,336.663784 L942.119977,336.328622 Z M287.084566,599.026876 C284.726461,597.680243 279.67509,595.322138 277.991798,593.975505 C276.308506,592.628871 271.257134,585.216402 271.257134,585.216402 L267.5509,578.143584 C267.5509,578.143584 263.174341,572.755555 264.184317,570.735604 C265.194292,568.714158 267.215738,567.367525 267.215738,566.35755 C267.215738,565.347574 269.235688,562.651315 267.5509,561.642836 C265.867608,560.631365 265.867608,560.296203 264.856137,557.264781 C263.846162,554.234856 263.846162,551.537101 262.499529,550.86528 C261.152895,550.19346 260.141424,545.813909 258.79479,545.47725 C257.448157,545.140592 256.100027,542.782487 256.100027,542.782487 L254.078581,515.502687 C254.078581,515.502687 253.403768,503.043335 252.731947,500.347076 C252.060127,497.650816 253.741923,491.929121 252.057134,486.876253 C250.372346,481.823385 252.395289,475.763535 251.383818,473.742088 C250.372346,471.720642 252.057134,465.99745 251.047159,460.60942 C250.037184,455.22139 255.088556,448.48523 251.047159,446.46528 C247.005763,444.44533 250.037184,441.412412 246.669105,441.412412 C243.301025,441.412412 240.944416,439.727624 237.912995,437.372512 C234.881573,435.014407 229.155389,430.634856 227.472097,428.950068 C225.788805,427.268273 220.399279,422.888722 218.715987,421.542088 C217.032696,420.195455 215.347908,414.46927 214.001274,412.784482 C212.654641,411.102687 211.981324,406.051315 209.959878,403.019894 C207.938431,399.989969 205.245164,394.938597 204.570351,393.927126 C203.895538,392.915654 196.487558,384.161041 196.487558,384.161041 L197.160875,378.773011 C197.160875,378.773011 202.212247,375.741589 201.53893,374.731614 C200.865613,373.721639 201.877085,372.708672 199.517484,370.690218 C197.157883,368.671764 197.496037,364.962537 199.517484,363.280742 C201.53893,361.594457 204.568855,356.206427 204.568855,356.206427 L209.620227,347.788472 C209.620227,347.788472 213.66312,343.407425 213.66312,340.3775 C213.66312,337.347574 219.387808,335.327624 216.019728,332.632861 C212.651648,329.938098 214.336436,327.579993 213.324965,325.558547 C212.313494,323.537101 212.988307,322.191964 216.019728,320.170517 C219.051149,318.149071 224.439179,310.741091 224.439179,310.741091 C224.439179,310.741091 228.480576,309.729619 229.490551,309.729619 C230.500526,309.729619 232.185314,298.950567 235.216735,306.023385 C238.248157,313.096203 239.258132,309.391465 238.248157,314.442836 C237.238182,319.494208 239.59479,318.485729 240.941424,317.139096 C242.288057,315.792462 240.266611,318.149071 242.961374,312.084732 C245.656137,306.020392 244.646162,304.003435 246.329454,305.688223 C248.012745,307.373011 248.686062,307.709669 251.717484,308.719644 C254.747409,309.729619 255.75888,309.391465 256.767359,311.412911 C257.777334,313.434358 257.442172,310.739594 263.16686,311.751066 C268.891548,312.762537 276.974341,309.729619 275.964366,313.096203 C274.954391,316.464283 272.932945,312.759545 277.647658,316.464283 C282.362371,320.169021 283.037184,320.842338 285.730451,321.517151 C288.423718,322.191964 290.781823,321.853809 294.824716,325.895205 C298.867608,329.936602 299.876087,330.27326 300.886062,332.291714 C301.896037,334.310168 303.579329,332.966527 305.264117,334.986477 C306.948905,337.006427 309.305514,337.00942 311.662122,337.00942 C314.018731,337.00942 311.662122,334.986477 315.36686,337.682737 C319.071598,340.378996 321.766361,340.711166 323.449653,346.100692 C325.132945,351.490218 328.501025,351.15356 325.806262,356.543086 C323.111499,361.932612 317.724965,364.28922 320.081573,363.952562 C322.438182,363.614407 326.817733,361.592961 328.164366,361.931116 C329.511,362.266278 330.184317,360.921141 332.205763,361.931116 C334.227209,362.941091 334.563868,360.584482 334.227209,362.941091 C333.890551,365.297699 333.889055,362.941091 333.889055,365.299195 C333.889055,367.6573 333.215738,362.941091 337.257134,363.952562 C341.298531,364.964033 338.940426,361.929619 343.655139,366.309171 C348.369853,370.688722 348.371349,369.342088 350.053144,371.698697 C351.737933,374.053809 353.421224,370.35356 354.432696,371.362038 C355.444167,372.370517 358.474092,371.6972 361.505514,372.372013 C364.536935,373.046826 362.515489,370.352063 367.231698,373.381988 C371.944915,376.411914 376.661125,375.401939 377.6711,378.096702 C378.681075,380.791465 381.377334,379.779993 382.722471,381.464781 C384.067608,383.14957 384.742421,380.789969 386.090551,383.14957 C387.437184,385.504682 391.480077,384.831365 390.805264,387.187973 C390.130451,389.547574 391.813743,388.199445 391.140426,391.566028 C390.46711,394.932612 388.109005,400.325131 386.090551,401.670268 C384.072097,403.015405 384.070601,404.701689 382.722471,406.384981 C381.374341,408.068273 381.712496,404.701689 380.027708,409.416402 C378.34292,414.131116 378.681075,414.805929 377.334441,419.182487 C375.987808,423.559046 376.997783,419.182487 375.987808,423.560542 C374.977833,427.938597 375.651149,430.63336 374.641174,435.686228 C373.631199,440.739096 373.967858,440.737599 373.294541,444.442338 C372.621224,448.147076 374.977833,442.760542 371.946411,450.503684 C368.916486,458.251315 368.579828,457.911664 367.569853,461.28124 C366.558381,464.650816 367.906511,461.954557 364.201773,463.976003 C360.497035,465.99745 362.518481,465.322637 358.13893,466.670767 C353.762371,468.0174 348.372845,469.367026 346.689553,469.702188 C345.006262,470.03735 338.270102,472.058796 340.291548,476.098697 C342.312995,480.138597 342.312995,480.814906 340.291548,485.867774 C338.270102,490.920642 335.240177,492.603934 335.240177,494.959046 C335.240177,497.315654 333.892047,499.672263 333.556885,501.357051 C333.218731,503.041839 336.58681,499.672263 332.54691,504.725131 C328.50701,509.777998 328.168855,508.429869 326.820726,511.46129 C325.474092,514.491215 326.820726,512.133111 325.474092,514.491215 C324.127459,516.84932 320.759379,517.857799 320.759379,517.857799 C320.759379,517.857799 321.094541,519.542587 319.747908,518.86927 C318.401274,518.195954 318.737933,519.205929 313.685065,517.857799 C308.632197,516.509669 307.960376,513.146078 307.28706,515.50119 C306.613743,517.857799 307.623718,519.207425 310.655139,521.564033 C313.685065,523.922138 318.737933,524.593959 317.389803,526.95356 C316.041673,529.313161 316.043169,529.311664 315.033194,530.658298 C314.021723,532.006427 316.379828,530.994956 314.021723,532.006427 C311.663618,533.017899 310.316985,537.395954 309.30701,537.395954 C308.297035,537.395954 307.622222,539.079245 306.275588,538.405929 C304.928955,537.732612 301.562371,535.374507 300.887558,536.721141 C300.212745,538.067774 298.866112,535.036353 299.20277,539.751066 C299.539429,544.465779 300.214242,547.160542 298.529454,548.172013 C296.844666,549.183485 292.803269,548.172013 292.803269,548.172013 L292.129952,546.487225 L289.773344,547.160542 C289.773344,547.160542 288.763369,551.201939 290.446661,551.875255 C292.129952,552.548572 291.793294,553.220392 293.476586,555.241839 C295.159878,557.263285 294.151399,560.968023 294.151399,560.968023 C294.151399,560.968023 294.151399,561.979495 292.468107,563.662786 C290.784815,565.346078 290.110002,566.694208 289.773344,567.704183 C289.435189,568.714158 287.415239,573.093709 290.446661,572.755555 C293.476586,572.4174 295.836187,570.734108 295.836187,576.123634 C295.836187,581.513161 297.18282,580.166527 295.499529,583.869769 C293.81474,587.574507 292.468107,587.911166 292.131449,591.277749 C291.796287,594.645829 292.469603,594.982487 293.14292,597.003934 C293.816237,599.02538 295.501025,598.013909 293.816237,599.02538 C292.135937,600.035355 287.084566,599.026876 287.084566,599.026876 Z M200.193793,324.88523 L195.811249,323.543086 L191.769853,320.511664 L186.718481,319.500193 C186.718481,319.500193 183.013743,316.133609 182.005264,315.461789 C180.993793,314.786976 179.647159,313.777001 179.647159,311.418896 C179.647159,309.063784 178.973843,309.398946 178.637184,306.704183 C178.300526,304.00942 175.942421,304.00942 174.932446,302.326128 C173.922471,300.642836 172.912496,299.635854 171.565863,297.94957 C170.219229,296.263285 169.547409,297.612911 168.199279,297.274757 C166.851149,296.936602 166.852646,296.936602 164.831199,296.936602 C162.809753,296.936602 161.46312,296.936602 159.779828,295.589969 C158.096536,294.243335 156.413244,294.579993 154.728456,292.896702 C153.043668,291.21341 152.033693,291.214906 151.023718,289.866776 C150.013743,288.518647 147.992297,288.517151 146.982322,286.833859 C145.972346,285.150567 143.614242,287.172013 142.604267,286.498697 C141.594292,285.82538 138.899529,287.84533 138.899529,287.84533 C138.899529,287.84533 135.868107,287.84533 134.858132,287.508672 C133.848157,287.17351 131.15489,286.498697 131.15489,286.498697 C131.15489,286.498697 127.109005,285.823884 125.763868,285.150567 C124.418731,284.47725 120.713992,282.119146 120.713992,282.119146 C120.713992,282.119146 116.337434,280.43735 115.662621,279.08922 C114.987808,277.741091 110.273095,276.057799 109.936436,275.047824 C109.599778,274.037849 104.885065,272.354557 104.885065,272.354557 C104.885065,272.354557 103.536935,268.984981 104.211748,265.955056 C104.886561,262.925131 105.559878,263.596951 104.549903,260.903684 C103.539928,258.210417 102.528456,258.210417 100.845164,254.505679 C99.1618727,250.800941 98.823718,249.790966 95.7922966,245.076253 C92.7623714,240.36154 94.1090048,244.066278 92.7623714,241.708173 C91.4142417,239.353061 89.0576333,233.62538 88.0476582,231.942088 C87.0376831,230.260293 86.0262118,228.912163 85.6910497,224.870767 C85.3543914,220.82937 85.017733,222.173011 82.3229699,217.123136 C79.6282068,212.07326 78.619728,216.448323 77.2715983,217.123136 C75.9234687,217.797949 77.2715983,221.166028 78.2815734,224.195954 C79.2915485,227.227375 79.2915485,227.56553 81.3114986,230.595455 C83.3314487,233.62538 82.3214737,235.983485 82.9947904,238.004931 C83.6681071,240.026377 83.6681071,242.044831 84.3414238,243.729619 C85.0147405,245.414407 85.3528951,251.475754 85.3528951,251.140592 C85.3528951,250.802437 85.3528951,251.140592 85.0147405,249.790966 C84.6780821,248.445829 84.6795784,248.442836 83.3314487,245.751066 C81.983319,243.059295 80.973344,242.721141 80.973344,242.721141 L78.9518976,238.341589 C78.9518976,238.341589 76.5952891,234.638348 76.2571345,230.932113 C75.9219724,227.227375 73.900526,223.860791 73.900526,223.860791 C73.900526,223.860791 73.2257131,213.418397 73.5638677,211.735106 C73.9020223,210.051814 70.8706008,208.028871 68.5124961,206.345579 C66.1558876,204.662288 65.1444163,204.663784 63.7977829,202.642338 C62.4511495,200.620891 60.7663614,195.571016 60.0930447,191.864781 C59.419728,188.158547 60.0930447,182.770517 59.419728,177.719146 C58.7464113,172.667774 60.7678577,173.677749 63.1244662,171.321141 C65.4810746,168.964532 66.8292043,164.921639 68.5124961,162.563535 C70.1972841,160.208422 73.2272093,156.840343 75.585314,154.145579 C77.9434188,151.450816 80.6366856,146.399445 80.6366856,146.399445 L82.3199774,140.338098 C82.3199774,140.338098 85.3513988,139.999944 86.6980323,138.991465 C88.0446657,137.982986 84.0032692,123.499195 83.6666108,120.46927 C83.3299525,117.437849 83.6666108,117.437849 84.3399275,116.091215 C85.0132442,114.744582 86.0232193,103.628871 85.0132442,99.588971 C84.0032692,95.5490708 82.9917978,97.5690209 81.3085061,95.2109161 C79.6252143,92.8528114 78.2755884,96.8957042 77.6037679,93.190966 C76.9319475,89.4862279 74.2356881,91.1710159 64.132945,88.8129112 C54.0302018,86.4548064 58.4082567,87.8014398 55.3768352,87.4662777 C52.3469101,87.1281231 55.3783315,87.4662777 54.0302018,87.4662777 C52.6820722,87.4662777 52.0087554,87.4662777 49.9888053,86.4548064 C47.9673589,85.4448314 44.9374338,87.1281231 42.2426707,88.8129112 C39.5479076,90.4976992 39.5494038,89.4847316 37.5279574,90.8328613 C35.5065111,92.180991 35.8431694,91.8443326 35.5065111,90.1610408 C35.1698527,88.4777491 37.1912991,87.1266269 34.1598776,88.1395944 C31.1284562,89.152562 30.1169849,91.1725122 28.0970347,92.5191456 C26.0770846,93.865779 22.7090048,94.2024373 19.340925,95.8857291 C15.9728452,97.5690209 13.6147405,95.550567 9.57484023,98.2438338 C5.53493998,100.937101 6.88007714,98.5774997 8.90152353,95.8857291 C10.9229699,93.1939585 7.2167355,95.550567 7.55489011,94.5390957 C7.89154846,93.5306169 4.18681031,92.5206418 1.15688512,91.5091705 C-1.87453632,90.4991954 2.16686018,90.1640333 0.820226768,89.152562 C-0.526406649,88.1410907 0.14691006,88.142587 0.820226768,84.4378488 C1.49354348,80.7331107 2.84167315,82.754557 6.20825669,79.3864772 C9.57484023,76.0183974 9.23967814,77.7031855 12.9444163,77.3650309 C16.6491544,77.0268762 20.690551,76.6902179 22.3738427,76.3550558 C24.0571345,76.0169012 26.4152392,74.3336094 29.1100023,70.9655296 C31.8047654,67.5974498 28.773344,69.2822378 26.7518976,68.9440832 C24.7319475,68.6074249 23.0486557,70.6258787 22.3738427,71.6373501 C21.6990298,72.6488214 16.9843165,69.6173999 16.3109998,68.2707665 C15.6376831,66.9241331 18.6676083,64.9011905 20.3523963,63.8912154 C22.0371844,62.8812403 26.0800771,63.554557 29.783319,64.9011905 C33.4865609,66.2478239 34.1613739,66.2478239 34.1613739,66.2478239 C34.1613739,66.2478239 37.1912991,63.8927117 36.8546407,62.8812403 C36.5179824,61.869769 36.856137,60.1879735 34.1613739,58.5031855 C31.4666108,56.8183974 39.5509001,54.7984473 41.2341919,53.7884723 C42.9174836,52.7784972 49.3169849,52.1036842 51.0002766,52.4403426 C52.6820722,52.7770009 61.1030198,48.0622877 62.7863116,49.073759 C64.4710996,50.0837341 75.2486557,48.0622877 76.5952891,48.3989461 C77.9419225,48.7356044 89.056137,46.0438338 94.4441669,45.7056792 C99.8321968,45.3675246 103.535439,45.7056792 109.598282,45.7056792 C115.661125,45.7056792 111.281573,47.7271256 114.312995,50.0837341 C117.344416,52.4403426 116.331449,53.1136593 117.679578,53.4503176 C119.027708,53.786976 117.679578,53.4503176 118.69105,55.1336094 C119.701025,56.8183974 125.762371,56.8183974 128.457134,56.4802428 C131.150401,56.1435845 139.568356,52.7770009 145.296037,51.7655296 C151.023718,50.7540583 158.433194,50.4188962 161.126461,50.0822378 C163.819728,49.7455795 170.89105,52.4388463 170.89105,52.4388463 C170.89105,52.4388463 192.784317,53.1136593 193.794292,53.4488214 C194.80277,53.7854797 192.784317,56.4802428 193.794292,56.4802428 C194.80277,56.4802428 196.824217,58.1650309 199.855638,58.1650309 C202.884067,58.1650309 205.580327,59.8498189 206.590302,59.5116643 C207.600277,59.1735097 210.631698,63.8912154 210.631698,62.8797441 C210.631698,61.8682728 213.658631,59.1750059 215.681573,57.1535595 C217.704516,55.1321131 220.397783,56.8169012 222.755888,56.4787466 C225.111,56.1420882 234.205264,56.1420882 237.236686,56.4787466 C240.268107,56.8154049 242.624716,58.835355 244.309504,58.835355 C245.994292,58.835355 246.329454,59.1720134 248.3509,60.8568014 C250.372346,62.5415895 258.455139,55.4672752 260.813244,48.7326119 C263.171349,41.9979486 266.20277,44.354557 269.569354,43.0079236 C272.935937,41.6612902 270.915987,46.0393451 271.252646,49.0707665 C271.589304,52.1006917 271.589304,51.0922129 273.947409,51.7640333 C276.305514,52.4358538 275.967359,52.7740084 275.967359,52.7740084 C275.967359,52.7740084 274.955888,55.4672752 275.294042,57.1520633 C275.629204,58.835355 275.967359,58.4972004 280.008755,56.4772503 C284.050152,54.4573002 282.36686,56.4772503 288.091548,53.7839835 C293.816237,51.0907166 291.459628,50.4173999 293.14292,50.752562 C294.827708,51.0907166 296.174341,50.0792453 295.837683,53.4473251 C295.501025,56.8154049 291.462621,58.1635346 289.10302,59.510168 C286.743419,60.8568014 282.702022,60.5216393 280.008755,61.8667765 C277.315489,63.2119136 274.282571,64.2203925 271.925962,66.9166518 C269.569354,69.6129112 269.567858,67.2548064 269.231199,66.2448314 C268.894541,65.2348563 266.536436,64.223385 265.189803,63.5500683 C263.843169,62.8767516 264.516486,67.592961 264.516486,67.592961 C264.516486,67.592961 264.181324,70.6243825 262.833194,72.3076742 C261.485065,73.990966 257.445164,73.6528114 255.08706,74.3276244 C252.728955,75.0024373 244.646162,78.7071755 239.931449,80.3904673 C235.216735,82.073759 226.125464,90.1565521 225.450651,91.8398438 C224.775838,93.5231356 225.113992,97.9011905 225.787309,99.9226368 C226.460626,101.944083 233.196785,104.300692 232.858631,105.647325 C232.523469,106.995455 254.077085,110.362038 254.077085,110.362038 L251.045663,113.39346 C251.045663,113.39346 249.025713,120.80144 250.709005,122.822886 C252.392297,124.844333 257.442172,125.852811 259.465115,125.179495 C261.488057,124.506178 263.171349,118.106677 263.171349,115.41341 C263.171349,112.720143 267.547908,112.381988 267.547908,112.381988 C267.547908,112.381988 272.264117,109.352063 277.652147,108.678747 C283.040177,108.00543 278.323967,104.975505 279.335439,94.5331107 C280.345414,84.0937092 282.362371,90.4932104 283.711997,89.8183974 C285.061623,89.1435845 292.131449,82.7470757 293.479578,80.7256294 C294.827708,78.704183 299.540925,81.7356044 301.562371,81.7356044 C303.583818,81.7356044 308.971848,82.4119136 310.318481,85.7784972 C311.665115,89.1450807 312.339928,87.7969511 311.328456,90.1565521 C310.318481,92.5131605 313.013244,97.5645321 315.034691,96.554557 C317.054641,95.544582 326.484067,90.8283725 328.168855,89.8183974 C329.852147,88.8099186 330.523967,89.8183974 331.535439,90.1565521 C332.545414,90.4932104 331.535439,94.5331107 331.535439,94.5331107 C331.535439,94.5331107 331.873593,96.5560533 330.862122,101.26927 C329.850651,105.982487 331.19878,105.310667 332.545414,106.320642 C333.892047,107.330617 333.555389,108.00543 336.250152,112.381988 C338.944915,116.76154 337.933444,112.718647 339.280077,112.04533 C340.626711,111.372013 342.311499,114.403435 343.99479,115.750068 C345.678082,117.096702 342.648157,120.128123 342.648157,120.128123 C342.648157,120.128123 339.953394,122.145081 339.280077,123.494707 C338.60676,124.844333 333.892047,127.536103 331.533942,129.220891 C329.175838,130.905679 325.134441,130.230866 322.104516,130.230866 C319.074591,130.230866 305.93893,130.567525 300.5509,131.914158 C295.16287,133.260791 290.783319,135.282238 289.436686,135.957051 C288.090052,136.631864 287.415239,139.660293 289.436686,139.323634 C291.458132,138.986976 293.81474,139.660293 294.826212,139.323634 C295.836187,138.988472 303.582322,137.303684 306.612247,138.650318 C309.643668,139.996951 304.928955,141.006926 301.224217,144.375006 C297.519479,147.743086 302.57085,147.406427 305.93893,148.417899 C309.30701,149.42937 308.968855,149.091215 314.021723,147.071265 C319.074591,145.051315 316.379828,146.397949 317.726461,147.40942 C319.074591,148.417899 316.716486,150.439345 316.716486,150.439345 C316.716486,150.439345 316.378332,151.111166 311.32696,152.795954 C306.275588,154.480742 307.960376,153.134108 305.602272,153.470767 C303.244167,153.805929 303.582322,154.815904 297.18282,159.868772 C290.783319,164.921639 291.79479,160.543584 293.141424,157.175505 C294.488057,153.807425 290.110002,156.167026 296.846162,152.124133 C303.582322,148.08124 296.171349,151.44932 293.81474,152.124133 C291.458132,152.798946 285.733444,155.827375 284.048656,155.827375 C282.363868,155.827375 277.987309,159.870268 274.619229,162.563535 C271.251149,165.256801 271.251149,165.931614 271.251149,168.96154 C271.251149,171.992961 265.861623,170.311166 264.851648,170.311166 C263.841673,170.311166 257.442172,173.341091 257.77883,175.024382 C258.115489,176.706178 253.402272,179.402437 253.402272,179.402437 C253.402272,179.402437 249.024217,182.769021 248.686062,184.115654 C248.347908,185.462288 241.951399,190.177001 241.613244,192.871764 C241.27509,195.566527 239.255139,196.576502 239.255139,196.576502 C239.255139,196.576502 233.868606,200.28124 231.510501,201.627874 C229.152396,202.974507 219.386312,209.710667 215.344915,212.740592 C211.303519,215.770517 211.305015,217.118647 211.978332,219.476752 C212.651648,221.834856 210.96686,223.856303 213.324965,230.927624 C215.681573,238.000442 212.313494,240.021889 212.313494,240.021889 C212.313494,240.021889 210.293543,242.713659 209.283568,243.725131 C208.273593,244.736602 205.916985,239.683734 205.916985,239.683734 C205.916985,239.683734 204.233693,235.9775 204.233693,229.916153 C204.233693,223.854806 202.885563,227.224382 202.885563,226.212911 C202.885563,225.20144 201.202272,225.20144 201.53893,224.191465 C201.875588,223.182986 198.507509,222.846328 196.1509,220.824881 C193.794292,218.803435 192.446162,220.488223 191.772845,219.478248 C191.099529,218.468273 186.721474,219.814906 186.721474,218.803435 C186.721474,217.79346 184.026711,219.141589 181.333444,223.519644 C178.640177,227.897699 178.302022,226.212911 176.618731,225.876253 C174.935439,225.539594 171.902521,226.887724 171.229204,223.182986 C170.555888,219.478248 166.177833,223.182986 164.494541,223.182986 C162.811249,223.182986 160.788307,223.854806 158.431698,224.529619 C156.07509,225.204432 153.716985,226.887724 152.370351,228.234358 C151.023718,229.580991 145.97085,231.265779 144.960875,232.612412 C143.9509,233.959046 142.939429,237.325629 143.277583,238.337101 C143.615738,239.348572 139.572845,246.083235 139.909504,247.768023 C140.246162,249.452811 136.54292,256.524133 136.54292,258.882238 C136.54292,261.23735 137.216237,266.290218 138.56287,268.648323 C139.909504,271.004931 146.980825,274.709669 148.665613,275.046328 C150.350401,275.382986 155.401773,275.719644 155.401773,275.719644 C155.401773,275.719644 159.441673,273.698198 161.46312,273.024881 C163.484566,272.351565 165.169354,267.970517 166.852646,263.930617 C168.535937,259.890717 168.199279,262.248821 170.219229,261.23735 C172.240676,260.227375 175.608755,260.903684 177.628706,262.248821 C179.648656,263.593959 178.638681,263.930617 178.638681,264.942088 C178.638681,265.950567 175.607259,273.36154 174.933942,275.044831 C174.260626,276.728123 169.882571,287.167525 170.555888,286.830866 C171.229204,286.495704 174.935439,285.484233 177.965364,285.484233 C180.996785,285.484233 185.712995,285.819395 188.069603,287.167525 C190.426212,288.515654 188.404765,288.852313 188.74292,290.198946 C189.079578,291.547076 188.741424,296.598447 187.731449,300.639844 C186.721474,304.68124 188.069603,308.385978 188.069603,310.742587 C188.069603,313.099195 189.752895,314.445829 189.752895,314.445829 C189.752895,314.445829 193.457633,318.82538 195.142421,319.160542 C196.827209,319.495704 197.837184,321.518647 197.837184,321.518647 L200.193793,324.88523 Z M308.132446,12.0144074 L328.339429,9.48872163 C328.339429,9.48872163 335.41075,9.48872163 338.947908,6.96303584 C342.485065,4.43735006 338.947908,4.43735006 349.556386,2.41739993 C360.164865,0.397449808 357.13494,-0.614021514 362.692047,0.395953548 C368.247658,1.40742487 369.763369,1.40742487 375.826212,2.41739993 C381.887558,3.42737499 383.403269,1.91316053 388.95888,3.42737499 C394.514491,4.94158946 397.041673,4.43735006 401.588805,4.43735006 L415.732945,4.43735006 C422.805763,4.43735006 429.372845,0.395953548 431.898531,2.92163933 C434.424217,5.44732512 435.939928,4.43735006 444.528456,5.44732512 C453.116985,6.45730018 456.652646,4.4358538 460.188307,5.44732512 C463.723967,6.45879644 469.788307,4.94308572 476.859628,5.44732512 C483.93095,5.95156452 487.468107,4.94308572 489.993793,4.94308572 C492.519479,4.94308572 495.043668,1.40592861 498.580825,4.43735006 C502.117982,7.4687715 506.663618,3.42737499 507.167858,7.4687715 C507.672097,11.510168 514.240676,8.47874657 507.673593,11.510168 C501.106511,14.5415895 502.116486,14.0358538 497.569354,18.0772503 C493.022222,22.1186468 500.600775,25.6543077 491.002272,29.1914648 C481.403768,32.7286219 479.888057,27.1700184 477.362371,33.2328613 C474.836686,39.2957042 477.362371,40.8099186 476.858132,43.8413401 C476.352396,46.8712653 475.342421,47.3770009 472.311,49.9026867 C469.281075,52.4283725 469.281075,49.9026867 462.208257,51.4183974 C455.135439,52.9341082 450.084067,54.4498189 447.054142,54.4498189 C444.024217,54.4498189 437.455638,56.9755047 435.434192,57.9854797 C433.412745,58.9954548 438.971349,60.5111655 428.361374,63.542587 C417.751399,66.5740084 415.225713,66.069769 412.195788,70.1096693 C409.165863,74.1495695 410.174341,74.6582977 408.154391,77.1839835 C406.134441,79.7096693 400.071598,89.8139087 397.040177,87.2882229 C394.010252,84.7625371 392.493045,85.2667765 389.967359,82.7410907 C387.441673,80.2154049 385.925962,76.6797441 384.410252,74.6582977 C382.894541,72.6368513 382.388805,67.5854797 381.884566,64.5540583 C381.380327,61.5226368 376.831698,54.4513151 381.884566,55.4612902 C386.935937,56.4712653 389.967359,55.9670259 391.48307,54.9570508 C392.99878,53.9470757 394.514491,50.4099186 394.514491,50.4099186 C394.514491,50.4099186 394.010252,44.8528114 392.493045,41.82139 C390.975838,38.7899685 391.988805,36.2642827 389.46312,33.2343575 C386.937434,30.2029361 386.937434,30.7086718 383.400277,27.6772503 C379.86312,24.6458289 380.874591,23.1301181 375.317484,22.6258787 C369.760376,22.1216393 368.244666,20.6044324 366.223219,21.110168 C364.201773,21.6159037 357.636187,17.5730109 364.707509,17.0687715 C371.77883,16.5645321 378.347409,17.5730109 378.347409,17.5730109 C378.347409,17.5730109 387.440177,13.5316144 384.410252,13.027375 C381.380327,12.5216393 388.955888,7.97450716 381.884566,9.49021789 C374.813244,11.0059286 366.730451,13.027375 364.709005,13.5316144 C362.687558,14.0358538 357.636187,14.5415895 352.584815,16.0573002 C347.533444,17.5730109 341.470601,17.0687715 338.440676,20.6044324 C335.409254,24.1400932 338.440676,24.6458289 335.409254,24.1400932 C332.379329,23.6358538 337.93494,20.6044324 330.863618,24.1400932 C323.792297,27.675754 325.812247,27.1715146 322.276586,26.1615396 C318.739429,25.1515645 316.213743,23.6358538 316.213743,23.6358538 C316.213743,23.6358538 320.762371,23.1301181 314.193793,22.6258787 C307.625214,22.1216393 307.626711,22.1216393 305.101025,19.0887216 C302.575339,16.0558039 304.09105,16.0573002 305.605264,15.0473251 C307.119479,14.0373501 308.132446,12.0144074 308.132446,12.0144074 Z M297.018232,34.7470757 L300.552396,38.2872254 C300.552396,38.2872254 303.076586,37.2772503 310.655139,35.7615396 C318.233693,34.2458289 318.737933,35.2543077 322.779329,37.7814897 C326.820726,40.3086718 326.316486,40.3086718 333.893543,41.3186468 C341.470601,42.3286219 335.91499,47.3799934 335.91499,47.3799934 L342.482072,53.9470757 L344.503519,60.514158 L342.482072,64.5555545 C342.482072,64.5555545 338.442172,62.0298688 336.420726,62.0298688 C334.399279,62.0298688 336.422222,62.0283725 339.452147,69.6069261 C342.482072,77.1854797 333.893543,70.6169012 333.893543,70.6169012 C333.893543,70.6169012 328.336436,72.1341082 332.883568,77.1854797 C337.430701,82.2368513 328.336436,81.7326119 325.306511,80.2154049 C322.276586,78.6981979 315.709504,76.1710159 312.172346,73.6468264 C308.635189,71.1226368 310.655139,69.1011905 315.708007,67.5854797 C320.760875,66.069769 321.265115,64.5555545 322.780825,63.0383476 C324.296536,61.5211406 322.276586,56.9755047 319.7509,50.914158 C317.225214,44.8528114 318.236686,49.3984473 306.616735,45.3570508 C294.998282,41.3156543 298.533942,46.3670259 295.504017,47.8827366 C292.472596,49.3984473 291.464117,43.8413401 289.94691,42.3256294 C288.429703,40.8099186 294.492546,37.2727615 297.018232,34.7470757 Z M184.366361,40.8099186 C187.397783,37.7784972 195.480576,30.7071755 198.511997,32.7271256 C201.541923,34.7470757 206.087558,31.2114149 209.624716,34.2428363 C213.161873,37.2742578 217.201773,40.8099186 220.233194,41.8198937 C223.264616,42.8298688 226.800277,39.2942079 229.831698,40.8099186 C232.861623,42.3256294 243.470102,33.2328613 241.450152,40.3056792 C239.430202,47.3784972 243.975838,49.3984473 238.418731,49.904183 C232.861623,50.4099186 226.800277,54.4513151 224.273095,52.9356044 C221.745913,51.4198937 219.725962,49.904183 215.684566,51.9256294 C211.643169,53.9470757 213.664616,53.9455795 209.117484,52.9356044 C204.570351,51.9256294 203.561873,53.9455795 202.551898,52.4298688 C201.540426,50.9156543 198.510501,51.4198937 199.01474,46.8727615 C199.51898,42.3256294 201.034691,42.831365 198.003269,42.831365 C194.973344,42.831365 192.447658,43.3371007 190.426212,41.82139 C188.404765,40.3056792 184.366361,40.8099186 184.366361,40.8099186 Z" id="Combined-Shape" fill="#FFFFFF"></path>
                        <g id="Combined-Shape">
                            <use fill="black" fill-opacity="1" filter="url(#filter-2)" xlink:href="#path-1"></use>
                            <use fill="#0C61E1" xlink:href="#path-1"></use>
                        </g>
                    </g>
                </g>
            </g>
        </g>
    </g>
</svg>