<?xml version="1.0" encoding="UTF-8"?>
<svg width="82px" height="74px" viewBox="0 0 82 74" version="1.1" xmlns="http://www.w3.org/2000/svg" xmlns:xlink="http://www.w3.org/1999/xlink">
    <!-- Generator: Sketch 52.2 (67145) - http://www.bohemiancoding.com/sketch -->
    <title>Group 8</title>
    <desc>Created with Sketch.</desc>
    <g id="ðŸ --Public-Web" stroke="none" stroke-width="1" fill="none" fill-rule="evenodd">
        <g id="Index" transform="translate(-267.000000, -1052.000000)">
            <g id="3-blocks" transform="translate(168.000000, 955.000000)">
                <g id="Group-2" transform="translate(0.000000, 87.000000)">
                    <g id="Group-8" transform="translate(93.000000, 0.000000)">
                        <polygon id="Stroke-1" stroke-opacity="0.0117647061" stroke="#000000" stroke-width="1.33333336e-11" points="0 0 93.9999961 0 93.9999961 93.9999961 0 93.9999961"></polygon>
                        <rect id="Rectangle" fill="#F4F4F4" fill-rule="nonzero" x="8" y="12" width="78" height="55" rx="8"></rect>
                        <g id="Group-7" transform="translate(7.833333, 11.750000)" stroke="#000000" stroke-linecap="round" stroke-linejoin="round" stroke-width="2">
                            <path d="M7.83333239,-7.05000003e-07 L70.4999953,-7.05000003e-07 C75.7222198,-7.05000003e-07 78.3333282,2.6111096 78.3333282,7.83333216 L78.3333282,46.9999965 C78.3333282,52.222221 75.7222198,54.8333293 70.4999953,54.8333293 L7.83333239,54.8333293 C2.61110983,54.8333293 -4.7e-07,52.222221 -4.7e-07,46.9999965 L-4.7e-07,7.83333216 C-4.7e-07,2.6111096 2.61110983,-7.05000003e-07 7.83333239,-7.05000003e-07 Z" id="Stroke-3"></path>
                            <path d="M23.4999981,70.4999951 L54.8333296,70.4999951" id="Stroke-5"></path>
                            <path d="M39.1666638,54.8333293 L39.1666638,70.4999951" id="Stroke-6"></path>
                        </g>
                        <path d="M38.1084505,53.9216553 C33.266296,51.1709461 30,45.9669152 30,40 C30,31.163444 37.163444,24 46,24 C54.836556,24 62,31.163444 62,40 C62,45.9219036 58.782797,51.0923892 54.0008606,53.858987 L49.7275651,44.7019252 C51.1121096,43.602819 52,41.9050984 52,40 C52,36.6862915 49.3137085,34 46,34 C42.6862915,34 40,36.6862915 40,40 C40,42.1454633 41.1260734,44.027918 42.8194282,45.0885722 L38.1084505,53.9216553 Z" id="Combined-Shape" fill="#FFFFFF" fill-rule="nonzero"></path>
                        <path d="M41.1084505,52.9216553 C36.266296,50.1709461 33,44.9669152 33,39 C33,30.163444 40.163444,23 49,23 C57.836556,23 65,30.163444 65,39 C65,44.9219036 61.782797,50.0923892 57.0008606,52.858987 L52.7275651,43.7019252 C54.1121096,42.602819 55,40.9050984 55,39 C55,35.6862915 52.3137085,33 49,33 C45.6862915,33 43,35.6862915 43,39 C43,41.1454633 44.1260734,43.027918 45.8194282,44.0885722 L41.1084505,52.9216553 Z" id="Combined-Shape" fill="#00BEE6" fill-rule="nonzero"></path>
                        <path d="M38.1084505,54.9216553 C33.266296,52.1709461 30,46.9669152 30,41 C30,32.163444 37.163444,25 46,25 C54.836556,25 62,32.163444 62,41 C62,46.9219036 58.782797,52.0923892 54.0008606,54.858987 L49.7275651,45.7019252 C51.1121096,44.602819 52,42.9050984 52,41 C52,37.6862915 49.3137085,35 46,35 C42.6862915,35 40,37.6862915 40,41 C40,43.1454633 41.1260734,45.027918 42.8194282,46.0885722 L38.1084505,54.9216553 Z" id="Combined-Shape" stroke="#000000" fill-rule="nonzero"></path>
                    </g>
                </g>
            </g>
        </g>
    </g>
</svg>