<?xml version="1.0" encoding="UTF-8"?>
<svg width="88px" height="65px" viewBox="0 0 88 65" version="1.1" xmlns="http://www.w3.org/2000/svg" xmlns:xlink="http://www.w3.org/1999/xlink">
    <!-- Generator: Sketch 52.2 (67145) - http://www.bohemiancoding.com/sketch -->
    <title>Group 5</title>
    <desc>Created with Sketch.</desc>
    <g id="ðŸ --Public-Web" stroke="none" stroke-width="1" fill="none" fill-rule="evenodd">
        <g id="Index" transform="translate(-676.000000, -1060.000000)">
            <g id="3-blocks" transform="translate(168.000000, 955.000000)">
                <g id="Group-3" transform="translate(391.000000, 105.000000)">
                    <g id="Group-5" transform="translate(161.500000, 32.000000) scale(-1, 1) translate(-161.500000, -32.000000) translate(118.000000, 0.000000)">
                        <path d="M79.9999976,36.6666648 C80.0093016,40.2361201 79.2093016,43.6138996 77.5999924,46.7999981 C73.4258353,55.1519437 66.6702813,59.3297195 57.333335,59.3333301 C53.763877,59.3426421 50.3860975,58.5426395 47.1999966,56.9333303 L32.0000005,61.9999966 L37.0666671,46.7999981 C35.4573595,43.6138969 34.6573593,40.2361174 34.6666665,36.6666571 C34.6702846,27.3297158 38.8480633,20.5741645 47.2000017,16.4000015 C50.3861002,14.790692 53.763877,13.9906905 57.3333323,13.9999963 L58.6666655,13.9999995 C64.4210775,14.3174643 69.3358702,16.5137818 73.411038,20.5889541 C77.4862084,24.664125 79.6825283,29.578917 79.9999976,35.3333316 L79.9999976,36.6666648 Z" id="Stroke-3" fill="#FFEC02" transform="translate(56.000039, 37.999956) scale(-1, 1) translate(-56.000039, -37.999956) "></path>
                        <path d="M47.9999966,22.6666648 C48.0093006,26.2361201 47.2093007,29.6138996 45.5999915,32.7999981 C41.4258344,41.1519437 34.6702804,45.3297195 25.333334,45.3333301 C21.7638761,45.3426421 18.3860966,44.5426395 15.1999957,42.9333303 L-4.80000381e-07,47.9999966 L5.06666615,32.7999981 C3.45735851,29.6138969 2.65735829,26.2361174 2.66666549,22.6666571 C2.67028363,13.3297158 6.84806231,6.57416446 15.2000007,2.40000151 C18.3860992,0.790692006 21.7638761,-0.00930954611 25.3333313,-3.67999981e-06 L26.6666646,-4.80000002e-07 C32.4210765,0.317464301 37.3358693,2.51378177 41.411037,6.58895406 C45.4862075,10.664125 47.6825273,15.578917 47.9999966,21.3333316 L47.9999966,22.6666648 Z" id="Stroke-3" fill="#E60F78"></path>
                        <path d="M46.5517934,16 C47.3809441,18.1612803 47.8636787,20.4773673 47.9999971,22.9482611 L47.9999971,24.2815944 C48.0093011,27.8510496 47.2093012,31.2288292 45.5999919,34.4149276 C42.7775336,40.0622997 38.77483,43.8011918 33.5918826,45.6316054 C32.5230929,42.9757347 31.992493,40.1923967 32.0000802,37.2815944 L32.0000802,35.9482611 C32.3175495,30.1938465 34.5138694,25.2790546 38.5890398,21.2038836 C40.9592571,18.8336637 43.6135087,17.0990359 46.5517934,16 Z" id="Combined-Shape" fill="#0C61E1"></path>
                        <path d="M86.9999976,38.6666648 C87.0093016,42.2361201 86.2093016,45.6138996 84.5999924,48.7999981 C80.4258353,57.1519437 73.6702813,61.3297195 64.333335,61.3333301 C60.763877,61.3426421 57.3860975,60.5426395 54.1999966,58.9333303 L39.0000005,63.9999966 L44.0666671,48.7999981 C42.4573595,45.6138969 41.6573593,42.2361174 41.6666665,38.6666571 C41.6702846,29.3297158 45.8480633,22.5741645 54.2000017,18.4000015 C57.3861002,16.790692 60.763877,15.9906905 64.3333323,15.9999963 L65.6666655,15.9999995 C71.4210775,16.3174643 76.3358702,18.5137818 80.411038,22.5889541 C84.4862084,26.664125 86.6825283,31.578917 86.9999976,37.3333316 L86.9999976,38.6666648 Z" id="Stroke-3" stroke="#000000" stroke-width="2" stroke-linecap="round" stroke-linejoin="round" transform="translate(63.000039, 39.999956) scale(-1, 1) translate(-63.000039, -39.999956) "></path>
                        <path d="M54.9999966,26.6666648 C55.0093006,30.2361201 54.2093007,33.6138996 52.5999915,36.7999981 C48.4258344,45.1519437 41.6702804,49.3297195 32.333334,49.3333301 C28.7638761,49.3426421 25.3860966,48.5426395 22.1999957,46.9333303 L6.99999952,51.9999966 L12.0666661,36.7999981 C10.4573585,33.6138969 9.65735829,30.2361174 9.66666549,26.6666571 C9.67028363,17.3297158 13.8480623,10.5741645 22.2000007,6.40000151 C25.3860992,4.79069201 28.7638761,3.99069045 32.3333313,3.99999632 L33.6666646,3.99999952 C39.4210765,4.3174643 44.3358693,6.51378177 48.411037,10.5889541 C52.4862075,14.664125 54.6825273,19.578917 54.9999966,25.3333316 L54.9999966,26.6666648 Z" id="Stroke-3" stroke="#000000" stroke-width="2" stroke-linecap="round" stroke-linejoin="round"></path>
                    </g>
                </g>
            </g>
        </g>
    </g>
</svg>